<svg id="Layer_1" data-name="Layer 1" xmlns="http://www.w3.org/2000/svg" viewBox="0 0 809.24 1113"><path d="M483.32,728.65a14.68,14.68,0,0,1-2.55-.69q-2.06,8-3.57,16.15c-.57,4.87-1.3,9.57-2.21,14.14l1.08,9.15a188.89,188.89,0,0,0,2.78,19.47c.33,1.52,3.64,2.39,5.57,3.56.44-1,1.49-2.22,1.23-3C479.16,768.05,481.16,748.35,483.32,728.65Z" transform="translate(-163.58 -668)"/><path d="M971.33,1643.68a220.63,220.63,0,0,0-27.84-17.33c-13.91-7.45-24.27-16.6-29.48-32.87-5-15.47-13.17-30.32-22.15-44-16.59-25.26-31-50.42-31.18-82.28-.06-13.9-6.78-27.71-9.77-41.71a47.09,47.09,0,0,1-.88-6.21c-5.49-13.28-10.19-26.91-15-40.47-5.53-15.52-12.47-30.12-19.26-45.1-13.68-30.14-30.26-67.67-18-100.57-.8-2.19-1.61-4.38-2.41-6.58a18.39,18.39,0,0,0-3.54,2.41c-4,4-7.83,8.09-11.76,12.12-5.77,5.92,0,8.77,2.92,12.85,1.37,1.9.61,5.35.77,8.1.82,14.2.62,28.55,2.77,42.54,1.46,9.42,4.65,19.37,9.83,27.25,10.45,15.88,15.1,33.28,19.77,51.31,4.75,18.34,12.77,35.83,19.25,53.73a36.12,36.12,0,0,1,1.64,7.79c.59,4.75.94,9.53,1.39,14.29-3.67-3.57-9.72-6.64-10.6-10.8-5-23.85-26-36.69-37.12-56.19-4-7.11-6.95-14.87-10.38-22.33-2,1.19-3.87-12-6.9.52-1.71,7.06-10.2,12.42-15.43,18.72a89.58,89.58,0,0,0-5.64,8.51c4.09-.1,9.05,1.28,12.11-.54,15.86-9.41,17.79-8.63,27,7.87,6.08,10.88,14.34,20.53,20.82,31.22,1.55,2.56,1.13,7.83-.54,10.53-4.43,7.19-9.94,13.74-15.24,20.36-1.24,1.55-3.36,2.39-5.07,3.57-.94-2.44-3.33-5.55-2.57-7.2,3-6.45,7.18-12.36,10.55-18.66,1.49-2.79,2.1-6,3.11-9.09-2.22,1.93-4.81,3.56-6.57,5.84-3.76,4.88-3.46,4.91-7.43,0a8.05,8.05,0,0,0-4.86-2.55c-1.93-.24-4,.59-6,1,1.21-2,3.31-3.94,3.44-6,.3-4.49,14.48-11.55-2.06-13.37a9.3,9.3,0,0,1-2.11-.74,24.53,24.53,0,0,1,2.05-1.64c.62-.4,1.93-.6,1.95-.93.23-4.94.76-10,.09-14.78-.18-1.29-5.94-3.18-6.13-2.89-3,4.74-6.55,9.53-7.81,14.83-1.32,5.47-.5,11.52-.21,17.3a37.57,37.57,0,0,0,1.83,8.9c2.49,8.24,8.13,16.85,7,24.53-1.41,9.95,1.79,17.32,5.66,25.12s8.08,15,0,22.76c-2.62,2.52-4.22,6.09-6.29,9.17-2-2.81-4.53-5.39-5.81-8.49-5.1-12.43-7.33-27-15.31-37-8.48-10.65-9.13-23.13-14.64-34.18-4-8-5.94-16.9-9-25.34a41.74,41.74,0,0,0-3.23-5.93c-1.33.76-2.69,1.47-4,2.3-2.64,1.71-5.24,3.49-7.86,5.24.2-4.66-.36-9.52.8-13.92,1.7-6.46,4.8-12.53,6.89-18.91.33-1-1.55-2.73-2.41-4.13-.76,1.5-1.62,3-2.25,4.51-1,2.5-1.88,5.07-2.81,7.6-1.79-2.32-5.2-4.71-5.1-7,.42-9.69-13.17-20.3,1.55-29.1-1.29-12-2.55-24-4-35.91,0-.31-2.88-.79-3-.5-2.17,4.33-3.14,9.81-6.4,12.9-3.07,2.92-10.89,1.37-5.24,9.63,1.69,2.47-.18,7.4-.49,11.2-.11,1.39-.94,3.78-.55,4,12.56,6.52,2.63,11.83-1.11,16.92-6.88,9.36-6,12.79,5,17.9,2,.9,3.47,2.75,5.18,4.17-6.2,6.21,3.09,19.23-10.51,22.85-3.27.87-5.72,6-7.37,11.44-3.58,11.91-10.13,28.62-19.35,31.68-11.4,3.79-9,10.42-12.18,16.5-3,5.71-7.34,10.68-10.94,16.09-1.87,2.81-4.45,5.73-4.79,8.82-.43,3.86,1.11,7.94,1.81,11.93,2.38-2.68,5.05-5.15,7.09-8.07,2.57-3.7,4.3-8,7-11.57,1.94-2.54,4.93-4.28,7.45-6.38.86,4.38,3.43,9.33,2.18,13-1.91,5.57-6.95,10-9.77,15.32-4.15,7.92-7.65,16.2-11.06,24.48-.47,1.14,1.16,3.13,1.81,4.73,1.77-.89,4.18-1.32,5.2-2.74,10.22-14.29,19.36-29.45,30.51-43a261.53,261.53,0,0,1,34.23-33.88c3.32-2.77,12.11-2,16.67.4,7.89,4.16,1.82,8.67-1.72,13.06-11.64,14.47-22.83,29.3-34.45,43.8-1.49,1.86-4.46,2.55-6.74,3.78-.69-3-2.53-6.25-1.78-8.76,1.05-3.48,3.81-6.58,6.3-9.44,3.16-3.66,7.39-6.5,10-10.44,3.07-4.54,4.94-9.88,7.33-14.87-3.42,3.6-6.79,7.26-10.29,10.8-6.76,6.84-14,13.3-20.23,20.57-2.79,3.24-4.51,7.93-5.19,12.21-.29,1.79,3.37,4.23,5.27,6.34.49.55,1.63,1.1,1.56,1.48-1.29,7-2.78,13.93-4.11,20.91a96.76,96.76,0,0,0-1.76,11.55c-.15,2.22,1,4.51,1,6.77,0,3.39-.45,6.78-.71,10.18,3.86-2.39,8.76-4,11.37-7.31,8-10.23,15.07-21.14,22.43-31.83.6-.88.61-2.16.9-3.25-1.14.33-2.72.29-3.35,1.05-5.44,6.57-10.53,13.45-16.15,19.87-1.58,1.81-4.56,2.4-6.9,3.55a75.54,75.54,0,0,1,.76-8.4c.18-1,1.93-1.58,2.41-2.61,12.89-27.89,37.58-47.43,52.42-74,1-1.75,3.71-2.5,5.63-3.72.51,2.56,1.53,5.14,1.38,7.66s-1.47,5-2.28,7.48c2.09-.13,5.14-1.19,6.1-.21,3.12,3.2,5.48,7.15,8.13,10.81-3.25.31-6.52,1-9.72.78-2.54-.17-5-1.9-7.5-2.13-1.35-.12-2.85,1.49-4.28,2.31,1.06,1.6,1.82,4.19,3.23,4.62,6.48,2,13.35,2.89,19.63,5.32,2,.77,2.57,5.13,3.79,7.85-2.16-.43-4.58-.38-6.43-1.38-8.6-4.66-16.65-1.48-22.48,6-14.77,19.06-30.82,37.13-45.65,56.15-2.7,3.47-2.13,9.54-2.78,14.45,0,.28,2.62,1.38,3.94,1.24,1.12-.12,3.08-1.6,3-2.27-1.86-14.66,12.72-18.86,18.56-28.65,7.69-12.88,18.48-23.89,27.82-35.8,7-9,28.93-7.27,33.8,2.77.78,1.62,1.39,3.32,2.09,5-2.19.08-4.5.62-6.53.09s-3.81-2.63-5.91-3.16-4.34.11-6.53.23c1.27,1.38,2.48,2.82,3.81,4.13,3.8,3.75,4.81,5.34-.59,10.4-12.88,12.06-23.72,26.3-35.58,39.48-1.69,1.88-4.48,2.77-6.77,4.12a53.18,53.18,0,0,0,.14-6.55,57.69,57.69,0,0,0-1.34-6.58l-8.29,3.63c-4.81,8-9.88,13.45-14.28,19.36-1.68,2.26-2,5.63-2.57,8.56-.13.64,1.19,1.57,1.84,2.36,1-2.07,1.68-4.48,3.19-6.11,1.08-1.18,3.3-1.31,5-1.9.17,3.56,1.31,9.93.35,10.26-11.36,4-9.68,14.6-12.46,22.85-.36,1.1.59,2.64.93,4,1.15-.7,2.85-1.12,3.37-2.14,4.61-9.17,9.35-18.13,20.11-21.55.34-.11.86-.59.83-.83-2.71-19.44,18.79-20.93,25.64-34.13,6-11.56,20-18.69,27.77-29.68,6.89-9.74,13.55-4.65,20.77-3.72,2.24.28,4.48.62,6.71.94-.63-2.16-.76-4.67-2-6.43-10.33-15-10.15-29.32-.28-44.66,2.73-4.24,5.76-11.06,4.16-14.75-3.64-8.35,1.92-12.91,5.09-18.08,4.62-7.54,10.57-14.27,16.12-21.21,1.39-1.74,3.37-3,5.09-4.5,1.09,2,2.11,4,3.3,5.9,3.19,5.08,7.36,9.76,9.48,15.24a213.17,213.17,0,0,1,9.47,31.13c.45,2-4,6.34-7.07,7.76-9.79,4.57-20.42,7.47-29.83,12.65-4.72,2.6-7.71,8.59-11,13.38-.76,1.12.54,3.64.89,5.51,1.67-.75,3.67-1.15,4.94-2.33,4.39-4.06,8.13-8.93,12.87-12.49,5.06-3.81,9.54-3.64,12.8,3.52,4.22,9.25-4,5.21-6.7,7-4.69,3.23-9.78,6-14,9.67-1.13,1,.15,4.72.32,7.19,2-.6,4.76-.58,5.87-1.92,6.54-7.9,14.19-7,22.11-3.14,1.83.88,3,3.25,4.4,4.94-2,1.54-3.93,3.17-6,4.62-5.25,3.69-10.72,7.1-15.73,11.08-1.23,1-1,3.76-1.48,5.71,2.18-.45,4.57-.5,6.49-1.47,1.72-.86,2.7-3.55,4.39-4,4.82-1.31,12.39-4.26,14.24-2.26,3.55,3.82,4,10.58,5.53,16.19,1.85,7-8.1,14.9,1.41,21.64.12.09-2.23,5.6-4.12,6.14-4,1.14-8.42.66-12.67.85a43.38,43.38,0,0,0,2.42-6c1.94-8.1,3.69-16.25,5.51-24.38-1.56-.21-4.15-1.09-4.52-.52-4.34,6.62-8.42,13.41-12.4,20.26a66.5,66.5,0,0,0-3.17,7.16c-2.19-2-5.33-3.56-6.39-6a218.53,218.53,0,0,1-9.73-26.23c-3.59-12.58-16.58-7.13-23.87-12.79-1.27-1-8.17,3.53-11.09,6.75-18.54,20.46-37.32,40.74-54.68,62.18-9,11-15.11,24.32-22.54,36.58-.59,1-1.8,2-1.72,2.87.36,4.11,1.07,8.19,1.66,12.28,2.65-3,5.55-5.77,7.85-9,1.93-2.72,2.6-6.53,4.92-8.69,1.2-1.11,5.68-.59,7.08.8,2.85,2.82,7.15,7.7,6.27,10-1.74,4.54-6.19,8.39-10.26,11.58-2.48,1.93-6.91,1.3-9.48,3.18-10.09,7.35-17.08,4.46-23-6.43-10.37-19.2-12.5-39.44-12-60.54.09-3.28-.37-7.91-2.47-9.69-15-12.75-20.25-31.08-28-47.9-9.81-21.36-19.94-42.66-27.93-64.72-3.85-10.64-2-23.21-4.72-34.44-5.71-23.75-10.14-48.36-20.14-70.31-5.7-12.5-10.53-24.26-8.08-36.7,1.94-9.83,9.7-18.43,14.35-27.84,1.52-3.08,2.73-7.42,1.73-10.4-3.07-9.17-8.67-17.69-10.49-27-1-5.2,3.23-11.6,5.6-17.26,2.16-5.14,5-10,7.51-15-3.71,3.76-7.54,7.41-11.11,11.28q-11.61,12.6-22.94,25.44c-1.08,1.24-1.24,3.27-1.83,4.94,1.67-.32,3.36-1,5-.88,3.87.28,10.73.2,11.07,1.58,2,8.11,2.5,16.6,3.5,25-1.95.06-4.69,1-5.72,0-6.67-6.15-14-12-19-19.37-3.39-5-4-12.15-4.73-18.48-.76-6.51.5-13.27-.37-19.75-.79-5.87-2.12-12.24-5.21-17.11-5.83-9.18-5.37-18.42-2.69-27.92,1.55-5.52,2.09-9.21-2.33-14.68-4.88-6-6.84-14.87-8.77-22.8-2.38-9.78-3.32-19.9-5.07-29.84-.85-4.85-2.33-9.58-3.13-14.43s-2.73-10.52-1.39-15c4.94-16.45,11-32.55,16.68-48.78.74-2.11,2.87-4.75,2.22-6.18-7.22-16,4.81-12.44,12.81-12.8,15.86-.71,21,5.43,15.71,20.89-2.43,7.07-1.32,11.12,2.9,16.86a124.7,124.7,0,0,1,14.41,26.65c1.14,2.79-1.8,8-4,11.29-11.17,16.44-22.82,32.54-34,48.94-1.62,2.36-2.19,5.63-2.56,8.56-.2,1.53,1.1,3.25,1.72,4.88a42,42,0,0,0,3.07-3.76c10.49-16.24,20.91-32.53,31.41-48.75,9-13.91,12.48-15.29,27.59-10.42a172.21,172.21,0,0,1,19.79,7.73c.84.4,1,5-.14,6.49-9.17,12.83-18.74,25.38-28.06,38.1-1,1.36-1.24,3.29-1.83,5,1.43-.88,3.2-1.48,4.23-2.7,11.79-14.06,23.61-28.1,34.91-42.55,1-1.21-1-6.31-3-7.89-8.38-6.69-17.6-12.34-25.81-19.21-3.27-2.72-6.77-7.67-6.65-11.49.46-14.81-10.23-28.62-3.91-43.59,1.29-3.07,5.33-5,8.11-7.43,1.26,2.68,3.75,5.43,3.59,8-1.34,22.49,14,34.37,29.93,44.16,19.93,12.27,28.75,32.1,20.15,54.08-4.07,10.41-8.11,21-13.9,30.52-4.83,7.9-12.26,14.18-18.34,21.35-1.34,1.57-1.84,3.84-2.72,5.79,2.23-.88,5.07-1.17,6.59-2.74A103.73,103.73,0,0,0,637.13,1207c4.23-6.19,7.78-3.32,10.26.82,10.74,17.92,20.37,21.44,40,14.82,2.51-.85,6.06,1.53,9.17,2.25,1.53.36,3.88,1.1,4.61.38,5.1-5,10-10.25,14.64-15.71,1-1.18.55-3.59.76-5.43-1.71.47-3.6.63-5.1,1.48-4.93,2.79-9.38,6.94-14.63,8.49-6.14,1.81-7.07-3.32-3.86-6.69,7.06-7.41,15.08-13.94,22.9-20.6.58-.48,3.45.47,4.07,1.48,10.47,17,6.22,33.46-9.84,45.7-9.22,7-17,16-24.84,24.73-2.25,2.52-2.93,7-3.06,10.68-.13,3.43,1.41,6.93,2.22,10.4.81-3.06,1.11-6.39,2.53-9.13,3-5.68,5.77-11.7,10-16.4,8.32-9.32,17.49-17.9,26.47-26.62,1.19-1.16,3.35-1.32,5.06-1.94.2,2,1.31,4.65.43,5.73-6,7.32-12.71,14.06-18.58,21.47-3.36,4.26-5.57,9.42-8.3,14.18,4.23-3,9.13-5.45,12.58-9.2,10.8-11.78,20.86-24.22,31.66-36,2.32-2.53,6.51-3.32,9.84-4.91-1,3.33-1.8,6.77-3.15,10-2,4.81-3.65,10.2-7,14-7.38,8.44-15.57,16.2-23.71,23.94-5.68,5.41-12,10.21-17.69,15.57-1,1-.78,3.32-1.12,5,2-.09,4.73.62,5.71-.4,6.51-6.78,12.45-14.12,19-20.84,1.6-1.63,4.87-1.63,7.37-2.38.31,2.76,1.94,6.76.71,8-5.12,5.38-11.33,9.69-16.61,14.93-1.6,1.58-1.49,4.89-2.16,7.41a44.29,44.29,0,0,0,6.8-2.79c1.68-1,2.66-3.41,4.39-4.08,4.32-1.67,6-13.5,12-5.16,2.5,3.49-1.71,12.37-4,18.39-.87,2.33-5.23,3.14-7.13,5.38-1.22,1.44-.85,4.23-1.2,6.42,1.95-.56,4.23-.65,5.79-1.77,4.41-3.17,9.1-6.26,12.62-10.31,4.91-5.63,6.5-12,1.6-19.13-1.68-2.45-1-6.52-1.44-9.84,2,1.68,3.83,3.64,6,5s4.79,2.05,7.21,3c.55-2.05,2.26-5,1.47-6-9.44-12.65,1.91-22.32,4.39-33.22.86-3.8,2.4-7.86,1.82-11.51-1.41-8.94-3.77-17.75-6-26.55-.63-2.49-2.13-4.76-3.22-7.13-1.33,2-2.63,4.12-4,6.15-4.66,7-9.29,13.94-14.11,20.78-.39.54-2.89.54-3.2,0-1.48-2.35-3.41-4.91-3.57-7.5-.67-11.19.69-22.81-10.28-30.68-1.27-.92-.78-4.29-1.11-6.53,2-.18,5.08-1.22,5.67-.41,5.65,7.74,20.24,11.43,12.19,25.72-.31.55,1.62,3.24,1.94,3.14,3.89-1.23,8.2-15.66,5.77-18.94-4.82-6.5-9.52-13.09-14.65-19.33-1.59-1.94-4.29-3.82-6.66-4.09-5.86-.66-11.41-.52-6.09-8.83.5-.78-1.28-3.49-2.58-4.68-.4-.38-2.86,1.09-4.09,2.07-6.19,4.9-7.3,10.46-2.93,17.45s2.87,12.52-3.5,18.37c-9,8.25-16.55,18-24.91,26.88-4.2,4.49-14.47,2.19-17.51-3.76-5.27-10.33-3.76-20.7-.77-31.4,1.89-6.74,2.58-13.9,3.06-20.93a155.18,155.18,0,0,0,0-22.2c-1-13.56-9.38-22-20.37-29-10.48-6.64-21.48-12.69-24.86-26.75-3.63-15.1,10.94-37.86,24.36-36.07a18.67,18.67,0,0,1,4,1.51,17.13,17.13,0,0,1-2.29,3.26c-12.55,11-13.68,23.19-2,35.45,9,9.46,18.49,18.77,29,26.41,11.39,8.25,12,17.65,3.37,27.7-1.57,1.83-2.28,4.41-3.39,6.65,2.24-.94,4.54-1.76,6.68-2.88a11.89,11.89,0,0,0,2.6-2.52c15.19-15.78,15.42-18.23.3-36.24-6.51-7.75-11.18-17.07-16.28-25.91-.71-1.22.39-4.65,1.68-5.5s4.68-.07,5.52,1.13c4.34,6.18,8,12.86,12.26,19.08,1.28,1.85,3.89,2.8,5.89,4.16.08-2.53,1.13-5.59.08-7.48a237.51,237.51,0,0,0-12.77-20.15c-3.39-4.89-10.94-7-7-16.19,1.31-3.06-4.91-8.84-6.44-13.77-1-3.32-1.25-9.32.6-10.57,3-2,8.13-2,12-1.26,3.08.62,6.14,3.29,8.39,5.79q17.38,19.32,34.21,39.14c1.22,1.43.66,4.36.92,6.59-2.23-.16-5.28.55-6.57-.64-7.92-7.37-15.3-15.34-23.19-22.74-2.55-2.39-6.1-3.69-9.19-5.49,1.1,4.65.65,11.15,3.59,13.64,11.4,9.65,24.16,17.69,35.79,27.09,3.5,2.82,7,6.17,4.26,13.45-4.36,11.7-11.16,20.07-20.68,27.68-9.34,7.46-17.31,16.64-25.72,25.22-.83.85-.55,2.78-.79,4.21,1.95.09,4.82,1.06,5.71.13,10.17-10.54,20.05-21.35,30-32.13,1.4-1.53,2.27-3.7,3.89-4.82,2.68-1.85,5.77-3.09,8.69-4.59-.57,3.57-1.36,7.11-1.64,10.7a50.82,50.82,0,0,0,.51,7.56c2.28-1.3,6.41-2.46,6.52-3.92.64-8.17.2-16.41.41-24.62,0-1.55,1.34-3.07,2.06-4.61.89.55,2.37.93,2.6,1.68,5.78,19.23,17.25,36.07,23.79,54.73,5.74,16.36,6.84,34.31,10.38,51.47,1.84,8.91,8.33,12.64,17,13.34a10.42,10.42,0,0,1,3.84,1.67c-6.79-18.58-13.39-37.21-18.3-56.22-.9-3.07-1.68-6.2-2.38-9.35-.53-1.41-1.08-2.81-1.6-4.22a246.47,246.47,0,0,1-8.95-30.08,22.29,22.29,0,0,1-3.58-9.6,138.72,138.72,0,0,1-8-27.45c-.82-.57-1.64-1.14-2.45-1.72a14.62,14.62,0,0,1,2.11-.28A147,147,0,0,1,750,1056.8c0-.26.07-.51.1-.76a34.3,34.3,0,0,1-7.09-11.77c-2-5.79-.85-12.8-.37-19.23,2-27.08-14.46-32.5-32.93-35.73-17.78-3.11-26.88-10-24.88-25,1.51-11.31,6.36-22.28,10.61-33,1-2.45,5.51-4.73,8.55-4.93q27.53-1.83,55.11-2.55c13.85-.38,27.74.22,41.58-.31a12.44,12.44,0,0,0,8.61-5c11.43-17.52,17.87-36.65,18.18-57.87.32-22,1.45-44,2.33-66,.79-19.72-5-28-23.42-36.27-8.91-4-13-12.1-13.07-22.14,0-2.1-1.81-4.18-2.78-6.27-1.45,2.08-3.78,4-4.16,6.28-.66,3.9-1.68,9.09.21,11.84,9.77,14.24.29,28.93,1.61,43.29.16,1.68-2.25,3.41-4.31,5.3a31.7,31.7,0,0,1-3.06,7.37c0,.36,0,.73,0,1.1.19,2.9.84,5.93.92,8.85.09,3.42.32,7-.51,10.26-2.08,8.1-4.59,16.11-7.26,24-.62,1.84-2.59,3.23-3.93,4.82a50.86,50.86,0,0,1-3.2-5.94c-.23-.6-.45-1.21-.68-1.81a46.8,46.8,0,0,1-11.25,6.07,34.55,34.55,0,0,1-26.29-.48c-8.81,1.63-17.67,3-26.84-2.63-16.19-10-33.62-18-50.61-26.75a21.23,21.23,0,0,0-7.66-1.91c-9.11-.83-15.33-5.09-19.8-13.35-5.93-10.94-13.54-21-19.35-32a71.87,71.87,0,0,1-7-21.26c-3.94-23.14-4-47-16.84-68.18-5.63-9.28-13.21-13.71-22.27-16.79-12.68,3.56-25.37,7.18-37.89,11.61a197.77,197.77,0,0,0-17.67,10.09q-5.08,4.68-9.77,9.76c-1.74,2.73-3.37,5.53-5,8.36-1.75,6.07-2.84,12.35-4.63,18.4,8.16.82,8.37,6.85,7.08,11.77-4.19,16,2.38,30.65,4.2,45.92,1.06,9,.45,19.09-2.87,27.29-1.5,3.71-11.75,6.1-17.38,5.17-2.88-.47-6.41-4.12-8.43-7.86-.24.25-.44.53-.68.77l-7.11,5.5c-.55.35-1.12.62-1.68.93-1.82,2-4.67,3.43-9,3.92q-4.82,3.23-9.63,6.43l-.37.48c-1,1.28-.66,3.63-.92,5.49,1.94.19,4.53,1.29,5.74.44,11.22-7.83,17.28-5.07,22.13,7.77,2.87,7.61,9.85,13.73,15.33,20.22,1.08,1.28,3.77,1.21,5.72,1.76a31.13,31.13,0,0,0-2-5C478.4,848.84,473,840.6,468.26,832c-.89-1.59.38-4.38.65-6.61,1.72,1,3.95,1.58,5,3,6.74,8.86,13.54,17.69,19.7,26.95,8.66,13,4,29.33-9.4,37.34-4.65,2.78-8.27,7.48-11.9,11.7-7.88,9.17-15.43,18.62-23.23,27.86a3.51,3.51,0,0,1-3.11.91,3.2,3.2,0,0,1-1.36-2.76c.53-2.55.8-5.7,2.44-7.38,8.5-8.74,1.18-17.16-.42-25.52-.34-1.78-4.51-2.83-6.92-4.22-.51,2.76-2.38,7.08-1.3,8,10.24,9-4.52,18,.23,26.87,0,0-3.62,3-4.59,2.5-4.77-2.24-10.48-4.15-13.55-8-12.41-15.64-23.91-32-36-47.93-1.15-1.53-3.88-1.86-5.88-2.75.15,2.22-.44,4.88.57,6.59,8.17,13.76,12.48,30.46,29.07,37.94,2.58,1.16,4.18,4.49,6.23,6.82-2.92.09-5.85.36-8.77.25-12.47-.47-20.09-7.18-24.34-18.62-1-2.77-3.56-5-5.39-7.45-.86,2.11-1.18,5.24-2.72,6s-5.64.28-6.5-1.05c-6.36-9.79-12.26-19.89-18-30-.43-.76,1-3.33,2.16-4.1,12.1-7.92,25.79-5.06,38.95-5,2.07,0,4.44,4.17,6.12,6.77,7.78,12.09,15.08,24.5,23.24,36.31,1.8,2.61,6.43,3.26,9.76,4.81-.48-3.17,0-6.92-1.62-9.38-5-7.74-11.06-14.75-16-22.5-4-6.28-11.49-15.37-9.54-19.4,4.06-8.39,12.39-16,20.79-20.61,5.32-2.9,8.92-4.6,8.65-9.16-9.85,6.29-19.94,12-30.77,16a22.15,22.15,0,0,1-23.94,7.36c-.47.13-.93.27-1.4.39a56.94,56.94,0,0,1-20.46,1.25c-4.28,4.94-9.71,4.21-13.68-2.64-.39-.66-.82-1.3-1.27-1.93-19.35-2.25-40.34-7.15-54-17.83-.57,1.2-1.27,2.41-1.77,3.62l-1.83-6.06.09-.6a37.06,37.06,0,0,1-6.73-8.63,34.69,34.69,0,0,1-2.71-2.57c-9.28-10.19-20.59-15.44-34.51-16.51-3.37-.26-7.76-5.66-9.07-9.56-1.58-4.73-.33-10.38-.38-15.63-.06-6-.2-10.92-8.86-6.39-1.66.87-8.64-4.42-10.16-8.11-3.41-8.28-4.21-17.62-7.41-26-3.54-9.27-6.93-9.36-12.32-1.63-.88,1.25-1.6,3.47-2.64,3.62-19.51,2.93-15.78,20.09-20.13,32.36a64.9,64.9,0,0,0-3.1,31.7,139.9,139.9,0,0,1,16.52,11.16,11.34,11.34,0,0,1,3.76-1.84c-1.51-3.61-2.3-9.78-4.63-10.42-14.09-3.89-5.12-14.51-6.13-21.48-.73-5,4.06-10.91,6.76-16.23.82-1.62,2.84-2.63,4.31-3.91.95,1.62,2,3.2,2.8,4.9a3,3,0,0,1,0,2.37c-6.65,12.34-8.26,24.27,2.45,35.41,1.5,1.56,2.81,3.32,4.21,5a32.6,32.6,0,0,0,3-4.92,66.51,66.51,0,0,0,2-7.19c2.57,2.25,7.18,4.33,7.37,6.76.92,11.62,1.31,23.31,1.13,35,.78,1,1.53,2,2.22,3.1l.31.45c1.92,2.25,3.88,4.47,5.82,6.69a41.39,41.39,0,0,1,5.3,5.14c.17.12.32.2.49.33,8.29,6.5,15.76,14.19,24.54,19.87,9.05,5.86,19.3,9.83,28.94,14.8a194.36,194.36,0,0,1,17.69,9.87c.63.41,1.22.84,1.79,1.28,13.23,6.19,25.73,14.11,36.68,21.15,4.36,2.8,8.7,5.68,13.09,8.49l.71.44c5.39,3.43,10.86,6.71,16.54,9.58a9.84,9.84,0,0,1,3.06.44c7.65,2.24,12.45-2.18,18.59-3.43,7.77-1.59,17.67-4.49,23.59-1.24,19.23,10.55,37.07,23.64,55.45,35.75.72,10.52-2.63,12.8-10.52,6.54-4.36-3.46-8.71-7-13.08-10.43q1.85,2.3,3.63,4.61a190.38,190.38,0,0,1,15.07,22.28c1.09.68,2.16,1.44,3.21,2.23a6.59,6.59,0,0,1,3.41,1c3.82,2.91,7,6.69,10.39,10.11,11.71,14.22,22.38,27.08,32.52,40.36a5.36,5.36,0,0,1,.81,3.18,40.2,40.2,0,0,1,7,12.81l1.71-.32c5.84-1,14.66-1.91,6.69,9.78-4.86,7.12-6.56,16.67-8.57,25.38-1.83,8-4.15,14.58-11.08,19.44a69.48,69.48,0,0,1,2.82,15.55,105.09,105.09,0,0,1-2.39,28v.49l-.09-.07c-.46,2.2-1,4.37-1.52,6.49,1,3.14,2,6.24,3.14,9.33,7.11,19.89,11.07,39.21,14.81,60,1.53,8.52,3.16,17,4.83,25.5,10,30.77,18.84,61.91,26.94,93.25.18.21.37.39.55.61,1.66,2,1.69,5.41,2.47,8.17-.28-.12-.58-.23-.87-.34q6.76,26.61,13.06,53.35c6.91,29.19,16.61,59,22.32,89.06l1.16,1.54c-.28.17-.53.28-.8.43.66,4.81,1.65,11.78,3,20.15,2.65,16.45,5.15,28.79,6.6,35.87,8.67,42.58,13.06,63.86,13.28,64.7,5.93,23.23,13.57,46,20.26,69.08,2.11,7.26-4.33,16.48-12.22,18.1-4.48.92-9,1.83-13.53,2.4-18.46,2.35-17.63,2.92-23,3.06-12.68.33-16.55-2.51-18.71-.09-3.76,4.22,2.76,18.74,12.19,29.3,25.49,28.52,63.92,18.84,99.14,28.83,3.08.87,12.55,3.6,19.87-.85a16.83,16.83,0,0,0,5-4.71c6-8.45,8.54-17.91,3-29.71-4.34-9.22-3.32-21.37-2.91-32.15.11-2.85,6.48-6,10.48-8,6.62-3.4,16-4.13,20.09-9.28,18.63-23.49,46.59-24.3,71.74-32.22,3.18-1,8-4.76,7.86-7-.61-11.94.21-21.47,13.57-27.28,6.58-2.86,9.54-7.29,11.36,3.17.33,1.9,4.31,3.67,6.93,4.57,5.67,2,11.56,3.27,17.33,5,10.79,3.18,21.52,6.57,32.33,9.65,14.77,4.2,31.88,2,43.5,14.68,6.18,6.71,12.5,5.9,18.83,2.14a57.3,57.3,0,0,0,15.21-12.52C973.35,1652.43,973.24,1645.11,971.33,1643.68ZM704.65,1345.57l1.56,8.13c-1.62.82-4.23-.61-4.55-2.44C701.36,1349.59,703.55,1347.48,704.65,1345.57Zm13.63,110c-11.39,9.54-22.5,19.41-33.94,28.87-3.09,2.55-7,4.11-10.51,6.12-2.13-4.69-6.75-9.95-5.84-13.94,1.62-7,6.23-13.49,10.28-19.76,6.6-10.21,13.46-20.29,20.86-29.93,2-2.66,6.34-3.59,9.61-5.31-.16,4.12,1.11,9.08-.73,12.22-6.13,10.45-13.5,20.17-20.07,30.38-1,1.58-.31,4.28-.41,6.46,1.43-1.09,3.18-1.93,4.22-3.31,6.92-9.16,13.69-18.44,20.51-27.69,6.06,2.34,10.91,5.9,15.75,9.45C724.75,1451.28,721.24,1453.11,718.28,1455.59ZM486.45,836l-3.13-5.55c2.42.48,3.69,2.13,4.76,3.9C488.17,834.47,487,835.38,486.45,836ZM194.87,769.88c-.67-4.28-4.39-8.32-4.3-12.41.08-3.59,3.53-7.11,5.49-10.65,1.27,2.57,3,5,3.72,7.73,2,7.6,3.05,15.52,5.74,22.85.72,2,5.89,2.52,9.12,3.28,5,1.15,10.43,1.7,4.61,8.53C204,792.74,196.94,783,194.87,769.88Zm24.24,62.38c-.5-6.79-2.56-13.45-3.56-20.22-.27-1.84.7-3.9,1.33-5.78.09-.25,2.2-.3,2.38,0,6.13,12.43,12.13,24.93,18.16,37.41C223.11,846.73,220,844.08,219.11,832.26Zm17.1-11.55c3.76-8.11,17.63-6.74,23.48,1.91a91.14,91.14,0,0,1,10.13,19.86c1,2.69-1.5,6.63-2.4,10-2.33-1.56-5.06-2.75-6.92-4.75C252.27,838.86,244.28,829.74,236.21,820.71ZM254,860.82c-.06.34-2.57.29-3.95.41l3.09-6.6C254.32,855.89,254.43,858.4,254,860.82Zm86,52.06c-.82.11-3.06-2.74-2.87-4a132,132,0,0,1,3.21-13.12c-.85-4.08-1.45-6-2.63-7.34-1.06-1.22-2.77-1.88-4.2-2.79-.14,1.55-.4,3.1-.41,4.65,0,3.39.09,6.77.15,10.15-3.13-2.21-7.28-3.76-9.21-6.74-6.31-9.76-11.66-20.13-17.73-30-1.33-2.17-4.1-3.47-6.21-5.17-.31,2.69-1.06,5.42-.82,8.06s2,4.94,2.19,7.47c.32,4.09-.09,8.24-.18,12.36-3.14-2.92-6.68-5.52-9.29-8.85-2.92-3.73-4.06-13.11-9.51-1.66-.14.3-3.82-.32-3.94-.9-2.08-10.28-6.12-8.44-12.07-2.72-1.3,1.26-5.59-.58-8.51-1,1.21-2.72,1.78-6.09,3.75-8,5.23-5.16,11.05-9.74,16.69-14.47,1-.8,2.36-1.86,3.38-1.71,13.59,2.11,28.2,2.05,40.35,7.48,8.61,3.86,14.11,15,20.53,23.29,3.42,4.42,6,9.55,8.67,14.49C355.29,899.45,348.61,911.74,340,912.88Zm25.65,15.24c-1.92.06-4.09-3.35-5.9-5.44-3.65-4.2-11.2-7.22-4.87-14.75,5.08-.57,10.59-1.27,12.46,1,3.17,3.87,4.57,9.53,5.46,14.65C373.05,924.78,368.25,928.05,365.69,928.12Zm219.38,161.51c-.28,3.51-.27,4.81-.89,5.64-1.83,2.42-3.91,4.65-5.9,7-.8-2.75-3.11-6.49-2.09-8,2-3,5.82-4.73,8.88-7Zm31.85-49.78c-4.39.23-7.44.23-3.6,5.93.77,1.16-3,5.37-4.68,8.17-1.4-2.28-4-4.59-4-6.84.5-24.59-8.76-45.18-23.95-64-4.77-5.92-7.14-13.89-10-21.18-.66-1.72,1.35-4.47,2.13-6.74,2.36,1.12,5.59,1.61,6.93,3.46,6.87,9.56,13.25,19.46,19.8,29.24s13.71,16.58,19.14,24.62c1.9,2.81-.11,8.68-1.18,13-.7,2.8-14.76,5.73.51,7.76,1.29.17,2.23,2.94,3.33,4.5C619.92,1038.45,618.45,1039.77,616.92,1039.85Zm-82.5-81.28c-1.67-.71-4.18-1-4.86-2.22-2.06-3.82-3.42-8-5-12.08,4-.53,8.94-.4,9.3.94C534.94,949.42,534.35,954.09,534.42,958.57Zm-10.48-87c-8,7.58-11.35,16.22-11.77,26.87-.11,2.81-3,5.51-4.56,8.25-1.64-2.3-4.1-4.39-4.77-6.94-3.74-14.26,9.57-39.64,23.62-45.56.29-.12,1.11,1.06,1.68,1.63C527.64,862,527.31,868.39,523.94,871.59Zm6.56-59.47c-3.12.54-6.41.11-9.63.11-4.26-1.62-7.64-1.34-10.25-2.63-2.22-1.09-3.54-4-5.26-6.08,2.51-.57,5-1.58,7.53-1.6,5.67-.06,11.49-.34,17,.86,4,.89,7.58,4,11.35,6.09C537.63,810,534.14,811.48,530.5,812.12Zm-26.59-33.81a48,48,0,0,1-1.58-12.11c2.55,2.58,5.28,5,7.58,7.79,1.9,2.31,4.08,4.87,4.66,7.63.46,2.24-.91,5.16-2.22,7.33-.46.77-4.38.69-4.55.21-.74-2-.34-4.46-1-6.56C506.34,781,504.92,779.73,503.91,778.31Zm37.56,47.24a13.65,13.65,0,0,1-2.93,6.06l-1.92-2.3Zm-1.78,99.08c3.18-6.41,6.63-2.22,9.89,1,1.84,1.8,4.44,2.82,6.57,4.36a11.19,11.19,0,0,1,2,2.51,17.48,17.48,0,0,1-3.24.87c-2.51.18-5,.17-7.55.23,1.28,2,2.5,4.05,3.85,6,2,2.81,4,5.56,6,8.34,3.64,5.43,7.09,9.39,8.19,13.93s-.11,9.67-.31,14.54c-3.93-2.72-8.76-4.74-11.55-8.33-3.33-4.29-4.9-9.93-7.23-15-2.48-5.4-5.61-10.62-7.18-16.27C538.07,933,538,928,539.69,924.63Zm24.79,18.42a37.57,37.57,0,0,1-3.58-6.1l7.21,5.35Zm-6.06-20.59c-4.84-7.71-8.48-14.21-12.11-20.71,2.55-1,7.11-3.34,7.35-3,6.82,11,22.27,16.05,22.33,31.63,0,2.52-1,5-1.59,7.56-2.09-1.33-4.54-2.33-6.21-4.07C564.72,930.31,561.65,926.3,558.42,922.46Zm30.44,13.33-2.58-7.27a13.45,13.45,0,0,1,6.06,5.32Zm-1.28,15.46c-.17.32-2.15-.31-3.29-.5l4.42-7.7C590,945.81,589,948.61,587.58,951.25Zm2.34-33.63c-2-2.06-3-5.31-3.28-8.61,0-.55,3.07-1.36,4.73-2.06Q590.65,912.29,589.92,917.62Zm-3.43-18.38c-1.28-1.33-2.38-2.93-3.88-3.91a19.22,19.22,0,0,0-6.28-2.8c-2.11-.45-4.4,0-6.61,0,.9-2,1.32-5.05,2.81-5.72,4.36-2,9.14-3,13.75-4.36,2,4.47,3.39,7.72,3.43,11C589.73,895.38,587.64,897.32,586.49,899.24Zm25.09-2.84a173.65,173.65,0,0,1,0,24.14c-.16,2.68-2.34,5.23-3.59,7.85-2-2.81-5.36-5.47-5.66-8.45-.79-8-.27-16.08-.27-24.13C607.43,887.38,611,889.07,611.58,896.4ZM602,875.85c1.6-1,3.6-3.17,4.71-2.78,1.6.55,2.55,3,3.77,4.57A49,49,0,0,1,602,875.85ZM650.18,1013c-.26,2.37-4.54,4.29-7,6.42-6.69-20.87-16.11-37.74-34.09-48.83-1.67-1-2.24-3.85-3.31-5.83,2.45-.67,5.85-2.72,7.22-1.79,7.6,5.19,15.88,10.11,21.7,17C642.66,989.31,651.7,999.11,650.18,1013Zm-36-66.26a42.94,42.94,0,0,1,6-10.83c2,3.54,4.74,6.88,5.94,10.69,1.12,3.58.67,7.67.91,11.53-1.72-.42-4-.3-5-1.38A123,123,0,0,1,614.15,946.69Zm53.57,47.24c-2.09-.79-5.1-1-6.1-2.47-3.3-5-5.87-10.43-8.71-15.7-11.47-10.29-17.82-20.1-17.63-35.09.08-6-6.41-12.92-11.47-17.8-6.73-6.49-5.08-13.4-3.85-20.72.3-1.84,1.55-3.71,1.32-5.42-.37-2.72-1.62-5.32-2.5-8,3.32.75,6.79,1.14,9.94,2.35,6.59,2.55,12.83,6.19,19.58,8.11,4.7,1.33,10.05.21,15,.84,2.28.28,4.36,2.13,6.54,3.26-.72,1.13-1.17,2.82-2.2,3.31-12,5.7-15,11.83-12.41,25.12.49,2.46.08,5.1.09,7.66-2-2-4.75-3.63-5.84-6-3.26-7.1-5.29-14.8-9-21.64-1.73-3.22-5.94-5.3-9.38-7.28-1-.58-4.73,1.27-4.69,1.52.64,3.29,1.08,6.91,2.83,9.64,6.33,9.85,13.5,18.78,15,31.47.65,5.51,8.6,9.82,12.05,15.41a250.71,250.71,0,0,1,13.32,25.69C670.3,989.51,668.44,992,667.72,993.93Zm-4.33-50.88c.54,2.83,1.09,5.66,1.63,8.48a8.91,8.91,0,0,1-5,4.71c-.46-3.48-1.29-7-1.15-10.43C658.92,944.83,661.81,944,663.39,943.05Zm4.22-3c-2.52,0-6.46-7.08-6.93-11.24-.35-3,3.89-6.62,6.09-9.95l3.1,6c0,3.63.37,5-.07,6C668.45,934,675.38,940.1,667.61,940ZM688,996.35c7.78,1.62,13.07,4.33,18.5,4.65,18.81,1.1,25.75,6.72,28.71,25.06,1,6.07,1.88,12.17,2.28,18.29.1,1.51-1.55,3.81-3,4.53-1.13.57-3.45-.37-4.83-1.27-16.14-10.56-32.41-20.93-48.15-32-5.07-3.57-12.27-6.47-7.2-16.55C680,987.78,678.74,987.15,688,996.35Zm98.5-166c3.05-13.72,11.9-25.93,9.58-41.21-.83-5.43.67-11.62,2.68-16.86.8-2.06,7-4.33,8.81-3.25,4,2.4,8.8,6.44,9.64,10.55,2.12,10.38,2.4,21.16,3,31.8.11,1.85-1.57,5-3,5.41-1.69.42-4.14-1.3-6-2.53-2.71-1.82-5.16-4-7.72-6.07-.15.75-.68,1.8-.37,2.19,2.46,3.12,4.53,7.06,7.78,9,7.4,4.31,14.9,7.77,5.48,17.15.4,5,3.6,10,3.33,14.87-.74,13.47-2.88,26.86-4.63,40.26-.15,1.09-1.64,2.86-2.44,2.83a8.22,8.22,0,0,1-4.69-1.89c-4-3.41-7.64-7.19-11.59-10.63-4.95-4.31-14.16-8.28-14.34-12.68C781.57,856.31,783.71,843.06,786.54,830.32ZM683.75,850.44c2.51.46,5.16.58,7.52,1.45,8,3,10.51,9.26,10.2,17.34-.07,2,1.21,4,1.86,6,1-1.7,1.59-3.74,2.94-5,3.49-3.34,7.12-8.78,11-9.07,14.43-1.09,29-.72,43.51-.31,6.65.19,11.84,1.74,13.86,10.6,1.36,6,8.17,10.94,13.05,15.84,4.69,4.71,10.79,8.2,14.65,13.42,1.2,1.62-2.32,10-4.63,10.4a170,170,0,0,1-30.35,2.74c-7,.1-11.55-2.47-4.23-9.52,2.66-1.38,3.61-3.37,3-4q-11.73-13.39-23.92-26.38c-1.09-1.15-3.34-1.21-5-1.78-.14,1.95-1.13,4.46-.28,5.74,4.25,6.39,9.37,12.21,13.34,18.75,1.54,2.54.87,6.43,1.2,9.7-3-1.57-6.75-2.45-8.76-4.83-6.73-7.93-12.79-16.42-19.2-24.63a70.93,70.93,0,0,0-5.1-5.32c0,3.33-1.15,7.43.35,9.83,4.49,7.15,10.28,13.47,15,20.48,1.46,2.17,1.21,5.51,1.74,8.31-2.28-1.32-4.66-2.5-6.82-4-5.67-3.91-12-7.2-16.67-12.1-9.95-10.51-19.27-21.66-28.14-33.1C682.17,858.72,683.71,854,683.75,850.44Zm-65-14.38c-1.66-10.41,2.51-12.81,12.26-11.88,23.92,2.27,42.14,17.28,43.83,35.45.13,1.42.18,2.85.26,4.28-1.42-.35-3.29-.24-4.2-1.11-6.08-5.8-12-11.77-17.84-17.8-.69-.71-.31-2.81-1-3.12-4.66-2.22-9.46-4.15-14.21-6.17,2.12,4.23,3.29,9.46,6.53,12.5,9.08,8.53,18.91,16.3,28.76,24,1.23,1,4.32-.68,6.56-.74,2.46-.06,6-.66,7.22.67,3.65,3.84,6.42,8.53,9.54,12.89a60.42,60.42,0,0,0-7.2,2.46c-.5.24-.66,2.38-.22,3.25,4.4,8.66,11,14.43,20.93,16.13,2.07.35,3.87,2.25,5.8,3.44a62.09,62.09,0,0,1-5.61,3.67c-18,9.29-23.64,6.64-28.39-12.15-1.55-6.11-4.87-11.8-13.17-9.62-6.25-1.41-12-3.23-16.19-6.8-8.29-7-14.49-17.28-27.75-15.07a3.74,3.74,0,0,1-3.1-1.06c-8.65-13.5-17.78-11.28-28.07-1.7-2.21,2.05-6.93,1.42-10.49,2l-1.95-13.4c3.32-.13,6.65-.2,10-.41,1.11-.07,2.9-.16,3.18-.78,4.54-10.12,11.72-13.3,22-8.83C617.2,842.77,619.28,839.21,618.77,836.06Zm-14.84-40.65c.63-.22,2.56,1.38,2.85,2.42,1.81,6.49,3.9,13,4.68,19.66.34,2.92-1.4,7.77-3.61,8.84s-6.56-.75-9.51-2.22c-5.18-2.57-1.59-4.9.35-7.7.69-1-1.23-5.43-1.75-5.39a39.57,39.57,0,0,0-11.45,2.24c-2.07.81-3.46,3.36-5.16,5.13l-2.52-9.79C583.82,796.2,595.17,798.42,603.93,795.41Zm-11.59-27c-2.24,2.27-5.36,6.9-6.57,6.44-12.64-4.75-9.44,7.32-12.55,11.91-2.16,3.18-1.88,8-2.68,12.12-3.23,14.09-5.3,27-7.21,39.85-.21,1.44-.11,3.67.78,4.42,14.51,12.24-5.29,11.17-6.73,17.18a16.65,16.65,0,0,1-3.14-.22c.41-1.66.44-3.58,1.33-4.93,1.47-2.22,5.26-5.59,5-5.87-11-13-2.05-32.58-15.68-45-8.25-7.51-17.47-16.26-20.82-26.26-4-12-12.43-16.83-21.25-22.77-.9-.6-1.81-2.51-1.48-3.27.43-1,3.08-2.06,3.11-2,5.19,7.9,21.57,1,21.61,16.15,0,.82,5.43,2.4,8.29,2.31,17.42-.55,34.82-1.56,52.24-2.18C588.49,766.24,590.43,767.69,592.34,768.43ZM498.8,710.92c5.83-5.76,10.21-15.5,21.65-10.46.27.12,3.91-4.65,3.81-7-.24-5.57.87-7.7,7.09-7.45,4.23.16,9.08-1.52,12.75-3.81,11.09-7,22.12-4.5,28.87,7.05a73,73,0,0,1,9.68,44.28c0,21.82-1.3,20.37-20.27,23.65-20.67,3.58-36.9-8.2-55.54-11.07C496.63,744.5,490.37,719.25,498.8,710.92Zm-2.56,115.44c-.27-1.07-.82-3-.77-3.06,3.19-1,6.42-1.77,9.65-2.59C502.16,824.21,499.2,825.28,496.24,826.36ZM469.35,988.44c-.85-3.56-3.29-7.68-2.27-10.59,3.61-10.34-3.37-26.65-13.64-30.47-1.15-.43-2.38-3.78-1.85-5.07,3-7.32,3.29-15.57,15.38-17.23,6-.81,10.27-12.46,15.79-18.82,2.41-2.78,6-4.57,9-6.81-.31,3.55.18,7.42-1.08,10.6-4.23,10.76-4.9,20.35,4.26,29.4,2.1,2.07,2.61,8.42,1,11.11-6.42,10.78-14,20.9-21.1,31.26C472.2,984.83,470.78,986.64,469.35,988.44Zm47.8,50.23a2.46,2.46,0,0,1-2.4-.1,44.39,44.39,0,0,1-5.95-5.92c-2.5-3.19-4.66-6.65-7-10l9.34,5.2a18,18,0,0,1,7.38,7.57C518.92,1036.11,517.91,1037.77,517.15,1038.67Zm2.54-15.67c-2.64-1.41-6.34-2.17-7.71-4.37-3.72-6-6.34-12.66-9.66-18.93-1.14-2.13-3.05-3.86-4.6-5.77-1.57,2.37-3.28,4.66-4.66,7.13a30.68,30.68,0,0,0-1.79,5c-1.84-1.28-4.51-2.21-5.26-4-.6-1.38.89-3.92,1.91-5.69,5.66-9.87,11.5-19.64,17.13-29.53.48-.84-.1-2.3-.19-3.47-1.14.51-2.8.7-3.34,1.58-4.57,7.35-8.7,15-13.48,22.18-1.59,2.39-4.7,3.77-7.11,5.61,0-3-1.07-6.47.15-8.77,4.76-9,10-17.71,15.53-26.21,4.1-6.27,8.27-6.38,14.36-.81,9.89,9,21.07,16.64,31.71,24.86,4.2,1.78,7.45,1.85,10,3.2.83.43.52,4.53-.39,6.41-1,2-3.91,3.17-4.78,5.21-.63,1.48.71,3.8,1.17,5.75a23.47,23.47,0,0,0,4.25-1.86c2.61-1.77,5.06-3.78,7.58-5.7,3,6.13,8.68,12.49,8.17,18.31-.59,6.81-6.36,13.32-10.44,19.59-1.28,2-4.37,2.75-6.64,4.08-.51-3-1.17-6.07-1.48-9.12a60.09,60.09,0,0,1,.07-6.84c-2.11,1.63-5.68,3-6,4.94-.78,4.33-1,9.35.44,13.36,2.44,6.58,8,4.87,13.42,3.37a63.77,63.77,0,0,1,15.89-2.32c2.07,0,4.2,2.62,6.3,4-1.33,1.8-2.41,4.88-4,5.19-10.54,2-21.2,3.46-31.82,5-.7.11-2-.1-2.13-.49-2.39-6.27-4.32-12.73-7-18.87-3.29-7.6-.22-12.75,5.38-17.48,1.1-.93,1.43-2.78,2.12-4.2-9.55-3.91-5.25-12.3-6.19-19a45.45,45.45,0,0,0-1.4-5.33c-1.64.9-4.25,1.44-4.76,2.77-3,8-5.61,16.22-8.35,24.36C521.31,1018.49,520.49,1020.74,519.69,1023Zm6,29.07a21.55,21.55,0,0,1,2.12-9.39l3.39,2.79Zm139,692c-1.71-1.1-4.31-1.82-5-3.38-5.7-13-12.19-25.75-16.26-39.25-8.46-28.07-15.88-56.47-23.17-84.88-6.47-25.24-12.2-50.67-18.25-76a3.51,3.51,0,0,1,0-1.21q.8-6.21,1.63-12.4c2.48,3.43,5.78,6.53,7.3,10.34,13.13,32.94,25.1,64.69,25.1,64.69,9.32,38.09,10.41,60.72,17.7,94.69,2.31,10.77,4.84,21.8,4.84,21.8C660.92,1728.48,663,1737.15,664.72,1744.05Zm9.37-33.86c-1.86.48-4.41-1.78-6.65-2.78-.8-4.51-2.68-6.88-2.2-8.62,1.06-3.9,3.3-7.48,5-11.19,2.28,2.57,4.91,4.9,6.77,7.74C680.83,1701.11,684.75,1707.48,674.09,1710.19Zm115.85-134.66,3.33,3.33-4.69,2.57A8.59,8.59,0,0,1,789.94,1575.53Zm-7.22-2.38c-.7,2.18-.75,5.43-2.23,6.33-3.44,2.1-8.23,5-8.87-2.89A55.39,55.39,0,0,1,782.72,1573.15Zm-29.27,24c4.45-4.85,7.69-8.48,10.93-12.11-.5,2.51-.61,5.19-1.63,7.47-.77,1.71-2.71,2.9-4.13,4.32-.85.85-1.66,1.75-2.57,2.54-3.09,2.69-6.22,5.33-9.34,8Q750.09,1602.29,753.45,1597.18Zm-36.34,96.91c-.42-2.43,1.46-5,3.76-7.09.28-.25,2.83,2,4.33,3.07ZM736,1677.3c-1,.68-5.37-1.45-5.32-1.71.86-4.39.78-10.7,3.62-12.69,17.65-12.29,35.83-23.84,54.2-35,3.29-2,8.36-1.65,12.54-1.38,1.59.1,3.71,2.82,4.22,4.71.31,1.15-1.7,3.55-3.22,4.45-11.28,6.69-22.69,13.14-34.06,19.66C755.76,1662.71,746,1670.2,736,1677.3Zm50.49-19.55c-.56-1.58-1.72-4.48-1.59-4.54,6.8-3.08,13.72-5.92,20.63-8.79C800,1649.67,793.25,1653.71,786.5,1657.75Zm13.87-44c-5-.33-9.88-2.86-14.93-3.8-1.73-.33-4.19,1-5.74,2.23-18.59,15.18-37,30.6-55.72,45.63-1.82,1.46-5.37.76-8.11,1.07.39-2.8-.25-6.57,1.34-8.23,12.15-12.74,24.74-25.06,37.19-37.52,1.42-1.42,3.52-2.59,4.16-4.3,4.3-11.67,13.56-12.76,24-11.7-.34-2.89-1.9-5.77-3.46-8.66,2.25-.34,4.69-1.42,6.69-.88,3.86,1,7.48,3,11.2,4.58-.82,1.66-1.38,4.48-2.51,4.73-3,.67-6.31.23-9.5.23,4.39,2.42,10,4.75,15.55,7.31,2.59,1.2,5,2.84,7.47,4.28C805.42,1610.56,802.78,1614,800.37,1613.8Zm19.37,9.15c-1.1-.51-3.19-1.24-3.13-1.5a73.32,73.32,0,0,1,2.25-7.31C820.77,1617.07,820.25,1620,819.74,1623Zm39.1-131.16c.19,5.46.38,8.5.57,11.55-1.14,0-3.12.47-3.3.08-1.69-3.73-3.07-7.6-4.54-11.43Zm-7,99.61,2.79-8.19,4.21,5.49A26.53,26.53,0,0,1,851.84,1591.4Zm20,32.14,1.5-5.77c1.67.76,2.3,2.72,2.39,4.7C875.77,1622.77,873.23,1623.18,871.87,1623.54Zm22.58-2.61c-1.1,0-2.89.49-3.17,0-1.34-2.22-2.87-4.61-3.18-7.08-.24-1.93,2.36-4.58,1.71-6-2.24-5-2.36-5.45,2.06-8.31,1.3-.84,2.21-2.28,3.31-3.44-1.88-1.26-3.61-3.26-5.64-3.65-11.09-2.15-21.81-4.72-29.27-14.33-1.7-2.2-4.16-3.81-6.28-5.69,2.64-2.07,5.25-4.17,8-6.17a5.36,5.36,0,0,1,2.17-.58c4.7-.8,9.4-1.57,14.11-2.35-4.22-3.84-8-8.27-12.74-11.37-6.87-4.54-14.88-7.44-21.41-12.36-4.79-3.6-8.68-8.95-11.54-14.28-1.16-2.15,1.06-8.93,2.43-9.14a55.82,55.82,0,0,1,17,.5c1.71.27,4.1,3.29,4.27,5.21,1.13,12.83,12.81,17.33,19.52,25.71,7.21,9,13.79,18.49,20.64,27.76,4.06,10.53,7,19.82,9.71,29.18.6,2.06.42,4.35.6,6.54C900.16,1611.3,893.36,1611.2,894.45,1620.93Z" transform="translate(-163.58 -668)"/><path d="M629.29,1404c-4,8.06-7.29,15.6-11.08,22.87-.44.85-5.46.52-5.52.2-.77-4.06-2.63-9-1.06-12.18,3.25-6.54,10.09-11.48,5.18-20.31-.83-1.49,1.05-5.15,2.54-7.16,12.69-17,25.58-33.8,38.43-50.65a8.59,8.59,0,0,1,2.58-2.52c2.14-1.09,4.44-1.84,6.67-2.74-.67,2.44-.67,5.39-2.12,7.21-8.24,10.39-16.93,20.41-25.24,30.75-4.8,6-9.38,12.18-13.58,18.6-1,1.55-.1,4.36-.08,6.59,2.23-.45,5.32-.11,6.57-1.47,13.89-15.11,27.76-30.27,40.95-46,2.26-2.68,2.49-8.34,1.57-12.12-1.49-6.17-9.38-11.07-3-18.72.34-.4-1.64-3.69-3.11-4.36-1.17-.52-3.94.38-4.78,1.54-14.69,20.09-29.17,40.33-43.77,60.48a52.8,52.8,0,0,1-4.89,5.16c-.07-3.23-1.52-7.5,0-9.53,14.41-19.09,29.56-37.63,43.83-56.82,1.75-2.34,1.12-9-1-11.22-9.9-10.16-20.95-19.18-31-29.15-4.28-4.23-7.23-9.8-10.79-14.75-2.92-4-5.42-8.49-8.89-12-6.41-6.49-.23-10.92,2.21-15.81.48-1,3.67-1,5.45-.69.66.13,1.21,2.69,1.17,4.13a34.62,34.62,0,0,0,20.07,32c1.48.69,3.26,1.36,4.14,2.59,4.37,6.06,7.3,13.84,12.91,18.23,21.29,16.61,28.44,39.32,30.9,64.66.31,3.13,2.77,6,3.5,9.16.4,1.76-.7,3.86-1.13,5.81-1.64-.41-4.29-.34-4.76-1.31-3.91-8.1-7.56-6.09-12.4-.66-3,3.38-7.28,5.68-11.07,8.35-1.84,1.29-4.36,1.89-5.74,3.51C645.11,1384.76,637.54,1394.1,629.29,1404Z" transform="translate(-163.58 -668)"/><path d="M740.73,1336.13c-2.6,3.41-4.39,6.41-6.66,9-1.74,2-4.09,3.34-6.17,5-.77-2.69-2.83-5.85-2.06-8a63.4,63.4,0,0,1,8.15-15.95c8.41-11.49,17.29-22.67,26.49-33.55,1.13-1.34,6-1,8,.3s3.58,6.77,3,7.14c-13.52,9.52-1.86,14.39,3.37,20.74a126.62,126.62,0,0,1,12.62,17.56,138.28,138.28,0,0,1,10.16,22.38c1,2.73-1,6.47-1.61,9.75-2.29-1.34-5.12-2.2-6.75-4.1-4.75-5.53-13.15-10.56-4.08-19.33.64-.63-.56-4.23-1.83-5.59-5.49-5.91-11.23-11.59-17.09-17.14-1.53-1.45-3.83-2.09-5.78-3.11-.34,2.69-1.79,5.92-.79,7.94,2,4.07,4.59,9.13,8.3,10.86,12,5.6,6.25,14.07,2.2,19.25-6.48,8.27-15.46,14.6-23.48,21.64-.69.6-2.14.33-3.23.46-.08-1.38-.8-3.33-.15-4,4.32-4.69,9.14-8.94,13.36-13.72,2.19-2.49,3.49-5.77,5.19-8.7-2-.81-4.69-2.83-5.88-2.17-2.72,1.5-4.45,4.68-7.07,6.49-2.19,1.51-5.06,2-7.62,3,1.17-2.81,1.56-6.88,3.66-8.19,8.21-5.12,15-10.78,11.87-21.54-1-3.36-4.24-6.06-6.46-9-2.18,2.37-4.48,4.64-6.48,7.16C742.82,1332,742.19,1333.87,740.73,1336.13Z" transform="translate(-163.58 -668)"/><path d="M551.16,1219.24c0-5.65-.53-10.17.19-14.49.44-2.61,2.82-4.89,4.33-7.31.92,2.14,1.74,4.33,2.78,6.42a27.25,27.25,0,0,0,2.26,3.27c1-1.35,2-2.65,2.95-4.05,9.71-15.34,19.26-30.77,29.19-46a36.28,36.28,0,0,1,8.56-8.48c1.3-1,3.79-.43,5.74-.58-.29,1.71-.07,3.74-.92,5.08-11.87,18.51-21.33,39.61-36.85,54.3-8.62,8.16-6.12,20.12-15.77,25.62-2.34,1.34-4.13,3.64-6.17,5.49.38-2.75.61-5.54,1.18-8.25C549.33,1227,550.3,1223.73,551.16,1219.24Z" transform="translate(-163.58 -668)"/><path d="M537.23,1175c-6.93-17-7.92-33,1.48-48.85,4.57-7.69,8.25-15.9,12.51-23.77.85-1.59,2.48-2.76,3.75-4.12.35,1.87.68,3.74,1,5.61.78,4.1,2.4,8.26,2.12,12.29s-1.51,8.61-4,11.38c-11.62,12.64-12.18,17.29-8.35,32.62C546.78,1164.42,540.66,1170.44,537.23,1175Z" transform="translate(-163.58 -668)"/><path d="M567.51,1271.93c-3.43,3.86-6.17,7.2-9.12,10.34a71.14,71.14,0,0,1-5.55,4.81c-.23-3.16-1.33-6.57-.5-9.43,1.64-5.67,5.11-10.86,6.43-16.58,2.1-9,2.05-18.67,4.87-27.41,1.72-5.31,7.13-9.42,10.88-14.07-1.69,5.49-3.66,10.92-5,16.51-.86,3.67-2.43,8.65-.79,11.15C574.4,1255.82,570.87,1263.41,567.51,1271.93Z" transform="translate(-163.58 -668)"/><path d="M662.6,1430c.47,3.16,1.29,5.1,1.35,7.06.14,4.08-.5,8.21-.07,12.24.25,2.31,2,4.48,3,6.71-2.52-1.28-4.92-3-7.58-3.78-8.89-2.74-6.94-8.66-7-16-.05-9.06-4.73-18-6.83-27.16-.83-3.66-.3-7.68,0-11.5.05-.55,3.43-1.62,3.81-1.18,3,3.48,8.8,8.79,7.87,10.71C652.71,1416.5,658.86,1422.15,662.6,1430Z" transform="translate(-163.58 -668)"/><path d="M614.15,1456.66c4-10.81,7.9-20.49,12.37-29.89.44-.92,4.58-.08,7-.07-.45,6,.1,12.29-1.6,17.9-2,6.69-5.56,13.06-9.34,19-1.43,2.24-5.38,2.87-8.17,4.23C614.33,1464.51,614.24,1461.19,614.15,1456.66Z" transform="translate(-163.58 -668)"/><path d="M796.45,1511.78c4.71-4.3,10.51-7.49,15.1-11.94,2-1.89,2.34-6.58,1.73-9.66-.54-2.71-5-4.94-5-7.4,0-3.85,2.2-7.72,3.48-11.58,2,3.18,5.24,6.23,5.6,9.58.9,8.56,2.32,15.57,13.3,14.73a6.3,6.3,0,0,1,3.82,1.65c.28.23-.41,2.69-1.07,2.93C821.35,1504.3,809.2,1508.32,796.45,1511.78Z" transform="translate(-163.58 -668)"/><path d="M611.12,1342.19c14.48-4.76,19.71-17.37,27.33-27.73,3.3-4.47,7.47-8.31,11.24-12.43-2.16,4.92-3.6,10.35-6.61,14.68-9.17,13.21-18.82,26.09-28.59,38.87-1.8,2.36-5,3.65-7.57,5.42-.23-3.84-1-7.76-.47-11.49C606.79,1347.13,609.09,1345,611.12,1342.19Z" transform="translate(-163.58 -668)"/><path d="M619,1178.05a205.68,205.68,0,0,1,18.08-19.1c1.34-1.25,3.81-1.28,5.76-1.88-.6,1.66-.77,3.7-1.85,4.94q-18.71,21.39-37.67,42.54c-.78.87-2.24,1.14-3.38,1.68.36-1.38.34-3,1.14-4.09C607,1194.45,613,1186.88,619,1178.05Z" transform="translate(-163.58 -668)"/><path d="M594.76,1400.94c-2.24-5.88-4.76-10.45-6.65-15.26-1.32-3.35-2.82-7.2-2.31-10.53.43-2.84,3.63-5.25,5.61-7.85.31,2.67.12,5.53,1,8,2.18,5.89,5.14,11.49,7.25,17.4a33.36,33.36,0,0,1,2.11,11.43c0,2.1-2.37,4.17-3.67,6.25A82.55,82.55,0,0,1,594.76,1400.94Z" transform="translate(-163.58 -668)"/><path d="M683.8,1314.33a57.87,57.87,0,0,1-1.79-9.7,8.36,8.36,0,0,1,.39-2.22c4.27,3.5,8.68,6.37,14.41,3.13-.1,3,.1,6-.43,8.88-.23,1.32-2.16,2.24-2.86,3.59-1.72,3.34-3.17,6.82-4.72,10.25C687.33,1323.82,685.87,1319.38,683.8,1314.33Z" transform="translate(-163.58 -668)"/><path d="M684.4,1403.36a67.29,67.29,0,0,1-7.36,12.48c-1.48,1.89-4,3-6,4.46-.4-2.62-1.8-5.63-1-7.8,1.68-4.45,4.38-8.57,7-12.61,1.49-2.3,3.66-4.16,5.52-6.22C683.21,1396.5,683.81,1399.33,684.4,1403.36Z" transform="translate(-163.58 -668)"/><path d="M642.61,1473c-3.39,4.28-6.17,8-9,11.63,0-4.07-.8-8.3.05-12.17,1-4.62,3.43-8.94,5.24-13.39A92.91,92.91,0,0,1,642.61,1473Z" transform="translate(-163.58 -668)"/><path d="M589.31,1337.35c2.5-1.82,4.39-3,6.29-4.24.19,2.36,1.26,5.12.4,7a153.48,153.48,0,0,1-9.2,16.53c-.67,1.08-2.71,1.31-4.12,1.93-.51-1.93-2-4.24-1.36-5.72A138.43,138.43,0,0,1,589.31,1337.35Z" transform="translate(-163.58 -668)"/><path d="M536,1097.5c4.59-7,8.48-13.48,12.63-19.78.94-1.42,2.78-2.26,4.2-3.36.21,1.89,1.26,4.27.49,5.61-4.85,8.51-10.05,16.82-15.3,25.09-.62,1-2.21,1.36-3.35,2A60.74,60.74,0,0,1,536,1097.5Z" transform="translate(-163.58 -668)"/><path d="M697.12,1173.81A113.19,113.19,0,0,1,683.6,1178c-1.65.4-3.46.1-5.2.12.85-1.7,1.27-4.09,2.64-5,5.33-3.4,10.91-6.43,16.55-9.3.83-.42,2.49.81,3.77,1.27C700.15,1167.81,698.94,1170.51,697.12,1173.81Z" transform="translate(-163.58 -668)"/><path d="M709.24,1113.25c-7.35-.32-7.87-.67-5.32-4.51,3.16-4.77,7.18-9,11.1-13.2.68-.73,2.7-.21,4.1-.27-.27,1.42-.17,3.06-.86,4.22C715.59,1104,712.67,1108.27,709.24,1113.25Z" transform="translate(-163.58 -668)"/><path d="M616,1276.78c1.89.53,4.44,2.45,4.29,2.69-4.62,7.4-9.39,14.71-14.43,21.82-1,1.37-3.2,1.85-4.84,2.74.35-1.86.22-4,1.13-5.53C606.37,1291.37,610.92,1284.41,616,1276.78Z" transform="translate(-163.58 -668)"/><path d="M655.94,1263.45c4.23-5.85,7.62-11.28,11.62-16.23,1.38-1.7,4.27-2.18,6.47-3.22-.58,2.35-.54,5.15-1.85,7-4.25,5.87-9,11.39-13.54,17A11.39,11.39,0,0,1,655.94,1263.45Z" transform="translate(-163.58 -668)"/><path d="M579.62,1252.55c-1.39-1-3.28-3.57-2.8-4.15,4.86-5.86,10.08-11.43,15.33-17,.17-.17,1.71,1,2.61,1.5-4,5.49-8,11-12,16.46A35.43,35.43,0,0,1,579.62,1252.55Z" transform="translate(-163.58 -668)"/><path d="M754.66,1165.94c-.32,5.57-.64,9.93-1,14.29-2.1-4.13-4.53-8.13-6.17-12.43-.86-2.26-.35-5-.45-7.6A31.32,31.32,0,0,1,754.66,1165.94Z" transform="translate(-163.58 -668)"/><path d="M718.93,1527.53c3.42-2.63,6.25-4.66,9.07-6.68-1.67,3.3-3.33,6.6-5,9.88a2.83,2.83,0,0,1-.84.85c-2.81,2.15-5.64,4.29-8.46,6.44C715.22,1534.72,716.77,1531.43,718.93,1527.53Z" transform="translate(-163.58 -668)"/><path d="M671.68,1273.14c.61,2.6,1.17,4.82.46,6.51a9.24,9.24,0,0,1-4.3,4.75c-1,.42-4.09-1.53-4.35-2.8-.35-1.71.68-4.19,1.94-5.61C666.83,1274.41,669.16,1273.65,671.68,1273.14Z" transform="translate(-163.58 -668)"/><path d="M569.93,1130.21c-.81,2-2.36,3.34-3.63,4.89-2.37,2.88-4.58,5.89-6.85,8.85-.34-1.47-1.47-3.68-.9-4.28A60.88,60.88,0,0,1,569.93,1130.21Z" transform="translate(-163.58 -668)"/><path d="M721.35,1582c-.61-1-.78-1.55-.58-1.79,4.06-4.88,8.15-9.72,12.24-14.57.28.89,1.07,2.22.75,2.59-2.61,3-5.54,5.7-8.13,8.71C724.18,1578.66,723.17,1580.74,721.35,1582Z" transform="translate(-163.58 -668)"/><path d="M652.3,1242.86a10.46,10.46,0,0,1,3.67,3.6l-9.82,6a41.12,41.12,0,0,1,2.3-5.64C649.22,1245.52,650.59,1244.57,652.3,1242.86Z" transform="translate(-163.58 -668)"/><path d="M645,1225.9c-3.06,2.19-5.52,3.76-8,5.34.08-1.63-.48-4,.38-4.75a105.82,105.82,0,0,1,9.76-6.91A37.66,37.66,0,0,1,645,1225.9Z" transform="translate(-163.58 -668)"/><path d="M675.32,1287.68c.88-.32,1.39-.06,1.41.24.26,3.27.46,6.55.53,9.82a15.55,15.55,0,0,1-2.41.37A62.42,62.42,0,0,1,675.32,1287.68Z" transform="translate(-163.58 -668)"/><path d="M614.15,1330.68a30.51,30.51,0,0,1,7.26-5.8l-3.3,10.32A14.93,14.93,0,0,1,614.15,1330.68Z" transform="translate(-163.58 -668)"/><path d="M686.83,1236.2c1.14-2.35,2.1-3.82,3.46-4.55a32.89,32.89,0,0,1,5.8-1.93c-.86,1.94-1.22,4.51-2.7,5.67C691.72,1236.72,689.06,1236.79,686.83,1236.2Z" transform="translate(-163.58 -668)"/><path d="M604.45,1321a81.71,81.71,0,0,1,3.42-9.47l3.42,3C609,1317.07,606.73,1319.64,604.45,1321Z" transform="translate(-163.58 -668)"/><path d="M582.65,1153.83a37.77,37.77,0,0,1,5.37-7.27c.63.76,1.86,2.16,1.81,2.2C587.51,1150.93,585.07,1153,582.65,1153.83Z" transform="translate(-163.58 -668)"/><path d="M585.68,1206.52a25.9,25.9,0,0,1,2-8,10.71,10.71,0,0,1,2.22.43A30,30,0,0,1,585.68,1206.52Z" transform="translate(-163.58 -668)"/><path d="M619.6,1201.68a16.59,16.59,0,0,1-3.31,5.45l-2.14-2.15A16.3,16.3,0,0,1,619.6,1201.68Z" transform="translate(-163.58 -668)"/><path d="M803.11,729.86c-10.86-9-12.26-28.6-1.73-37.7,3-2.6,9.5-3.2,13.54-2,3.2,1,7.42,6.38,7.16,9.49a223.66,223.66,0,0,1-5.94,34.9c-.74,3-5.56,4.95-8.51,7.38a63.77,63.77,0,0,1-3.91-11.51,29.94,29.94,0,0,1,6.15.82c2.76-9.64,5.43-19.32,7.47-29.13.16-.79-4.19-3.61-6.31-3.46-1.93.14-5,2.82-5.27,4.73C804.44,712.16,803.92,721,803.11,729.86Z" transform="translate(-163.58 -668)"/><path d="M416.09,860.08c3.74,4.54,6.67,8.65,10.05,12.36s6.23,8,12.64,2.89c5.85-4.72,4.57-9.17,2.32-14.42-.3-.69-1.57-1.13-1.6-1.73-.28-5.18-10.67-7-4.66-14.22,3.24,3.47,6.85,6.67,9.65,10.46,7.21,9.83,13.54,20.34,21.22,29.77,6.79,8.33.06,12.38-4,17.54,0,0-2.56-1.61-2.46-1.82,3.19-7.27,2.83-11.7-7-9.62-.64.14-1.68-1.58-2.53-2.43-7.68-7.73-7.47-7.57-13.57.44-1,1.28-6.23,1.44-7.09.3A259.49,259.49,0,0,1,413.25,866c-1-1.7.28-4.79.56-7.24a1.05,1.05,0,0,1,.81-.11A10,10,0,0,1,416.09,860.08Z" transform="translate(-163.58 -668)"/><path d="M453.64,839.48c8.52,11.75,16.55,22.81,24.23,34.1a15.8,15.8,0,0,1,2.33,8.15c0,1-2.87,2.12-4.43,3.18-1.52-2.39-3-4.84-4.58-7.17-6.44-9.35-13.05-18.59-19.34-28-2-3.05-3.27-6.63-4.87-10A23.85,23.85,0,0,1,453.64,839.48Z" transform="translate(-163.58 -668)"/><path d="M422.15,856.44a29.44,29.44,0,0,1,2.13-7.87c1.1.73,3.18,1.49,3.15,2.17a84.22,84.22,0,0,1-1.29,9.7Z" transform="translate(-163.58 -668)"/><path d="M658.36,869.77c3.9,5.38,7.24,10.14,10.37,15,.14.22-1.58,1.62-2.43,2.48-3.69-4.45-7.36-8.92-11.08-13.35-.77-.92-2-1.56-2.48-2.59-1.54-3.24-2.82-6.6-4.2-9.91C651.61,864,654.68,866.58,658.36,869.77Z" transform="translate(-163.58 -668)"/><path d="M520.27,983.63c.86,2,1.78,3.71,1.26,4.62-2.09,3.65-4.63,7-7,10.53-.71-1.11-2.3-2.67-2-3.26A59.72,59.72,0,0,1,520.27,983.63Z" transform="translate(-163.58 -668)"/><path d="M553.58,1010.89a20.47,20.47,0,0,1,6.46-4.44c-.24,2.39-.47,4.78-.71,7.17A12.52,12.52,0,0,1,553.58,1010.89Z" transform="translate(-163.58 -668)"/><path d="M511.79,981.21a11,11,0,0,1-2.92-4.35l5.82-1.22A50.24,50.24,0,0,1,511.79,981.21Z" transform="translate(-163.58 -668)"/><path d="M767.38,891.57c-3.45-4.25-6.58-7.72-9-11.63-1-1.68-.57-4.28-.78-6.45,1.94.67,4.3.86,5.75,2.1,8,6.89,15.95,13.87,23.54,21.21,1.75,1.68,2,4.9,3,7.41-2.79-.32-6.15.24-8.27-1.13C776.74,900,772.49,895.87,767.38,891.57Z" transform="translate(-163.58 -668)"/><path d="M796.45,860.08c2.81,2,5.54,3,7.1,4.9,2.41,2.95,4,6.56,6,9.89-4.12-.69-8.85-.36-12.18-2.36s-5.57-6.14-7.63-9.71c-1-1.68-.37-4.24-.48-6.4A80.37,80.37,0,0,1,796.45,860.08Z" transform="translate(-163.58 -668)"/><path d="M801.3,850.39a45.35,45.35,0,0,1-4.72-7.3c-.49-1.08.18-2.68.32-4.05,5.27,3.55,10.63,7,15.74,10.77.84.62.6,2.72.85,4.13-3.46-1-6.92-2-10.39-2.93A4.32,4.32,0,0,1,801.3,850.39Z" transform="translate(-163.58 -668)"/><path d="M815.23,835.85c-2,.61-4.77,1.43-5.74.45-2.55-2.58-4.41-5.88-6.27-9-.32-.54.74-1.88,1.16-2.86l6.67,6.68A32.84,32.84,0,0,1,815.23,835.85Z" transform="translate(-163.58 -668)"/><path d="M883.67,1584.46c-2.18-2.26-3.76-3.92-5.33-5.57l7.39.36A13.49,13.49,0,0,1,883.67,1584.46Z" transform="translate(-163.58 -668)"/><path d="M480.9,938.21c-.81,7.4-1.36,13.64-2.67,19.72-.23,1.05-3.67,1.41-5.63,2.08.21-1.89-.22-4.24.75-5.58,3.63-5,7.85-9.68,2.7-16.09C477.67,937.89,479.28,937.45,480.9,938.21Z" transform="translate(-163.58 -668)"/></svg>