<svg id="Layer_1" data-name="Layer 1" xmlns="http://www.w3.org/2000/svg" viewBox="0 0 31.3 32"><defs><style>.cls-1{fill:#001fff;}</style></defs><path d="M19.63,6.9l-.07,0c0,.13-.06.26-.08.39s0,.23-.05.34,0,.14,0,.22,0,.31.07.46.09.06.13.08,0,0,0-.07A3.15,3.15,0,0,1,19.63,6.9Z" transform="translate(0)"/><path d="M31.26,28.72a4.88,4.88,0,0,0-.66-.41,1.29,1.29,0,0,1-.7-.78,4.5,4.5,0,0,0-.53-1.05,3.48,3.48,0,0,1-.74-2,6.05,6.05,0,0,0-.24-1s0-.09,0-.15c-.13-.31-.24-.64-.36-1a11.29,11.29,0,0,0-.46-1.08,3.35,3.35,0,0,1-.43-2.4l-.05-.15-.09,0a3.83,3.83,0,0,1-.28.29c-.13.14,0,.21.07.31s0,.13,0,.19c0,.34,0,.68.07,1a1.69,1.69,0,0,0,.23.65,3.86,3.86,0,0,1,.47,1.22c.12.44.31.86.46,1.28a1.29,1.29,0,0,1,0,.19l0,.34c-.08-.09-.23-.16-.25-.26-.12-.57-.62-.87-.88-1.34a5.12,5.12,0,0,1-.25-.53c-.05,0-.09-.29-.17,0s-.24.3-.36.45a1.43,1.43,0,0,0-.14.2c.1,0,.22,0,.29,0,.38-.23.42-.21.64.19.15.25.35.49.5.74a.28.28,0,0,1,0,.25,5.72,5.72,0,0,1-.37.49l-.12.08c0-.06-.08-.13-.06-.17s.17-.29.25-.44a2,2,0,0,0,.08-.22.7.7,0,0,0-.16.14c-.09.11-.08.11-.18,0a.15.15,0,0,0-.11-.06.32.32,0,0,0-.14,0c0-.05.07-.09.08-.14s.34-.28-.05-.32l-.05,0,.05,0,0,0a2.08,2.08,0,0,0,0-.35s-.15-.08-.15-.07a1.19,1.19,0,0,0-.19.35,1.41,1.41,0,0,0,0,.41.85.85,0,0,0,0,.22c.06.19.2.4.17.58a1,1,0,0,0,.13.6c.1.18.2.36,0,.54a1,1,0,0,0-.14.22,1.21,1.21,0,0,1-.14-.2,3.88,3.88,0,0,0-.37-.88,4.13,4.13,0,0,1-.35-.82,6.08,6.08,0,0,1-.21-.6.64.64,0,0,0-.08-.14l-.09.05-.19.12a1.22,1.22,0,0,1,0-.33c0-.15.11-.3.16-.45s0-.06-.06-.1a.54.54,0,0,1-.05.11,1.34,1.34,0,0,1-.07.18c0-.05-.12-.11-.12-.16,0-.23-.31-.49,0-.7,0-.28-.06-.57-.1-.85,0,0-.06,0-.07,0s-.07.24-.15.31-.26,0-.13.23,0,.18,0,.27,0,.09,0,.09c.3.16.06.29,0,.41s-.14.3.12.42l.13.1c-.15.15.07.46-.25.55-.08,0-.14.14-.18.27-.09.29-.24.68-.46.76s-.22.25-.29.39a3.62,3.62,0,0,1-.26.38.57.57,0,0,0-.12.21,1,1,0,0,0,.05.29,1.46,1.46,0,0,0,.16-.19c.07-.09.11-.19.17-.28a1.3,1.3,0,0,1,.18-.15c0,.1.08.22.05.31a2,2,0,0,1-.23.36,6.21,6.21,0,0,0-.26.59s0,.07,0,.11.1,0,.12-.07c.25-.34.46-.7.73-1a6.28,6.28,0,0,1,.82-.81.45.45,0,0,1,.39,0c.19.1.05.21,0,.31l-.82,1.05a.48.48,0,0,1-.16.09c0-.07-.06-.15,0-.21a.65.65,0,0,1,.15-.23c.07-.08.17-.15.24-.24A2.37,2.37,0,0,0,25,25l-.24.26c-.16.16-.34.32-.48.49a.64.64,0,0,0-.13.29s.08.1.13.15,0,0,0,0l-.09.5a2.56,2.56,0,0,0-.05.27c0,.05,0,.11,0,.16a1.94,1.94,0,0,1,0,.24.83.83,0,0,0,.27-.17c.19-.24.36-.5.54-.76,0,0,0-.05,0-.08s-.07,0-.08,0-.25.32-.39.47-.1.06-.16.09,0-.14,0-.2,0,0,.06-.07c.3-.66.89-1.13,1.25-1.76,0,0,.08-.06.13-.09a.63.63,0,0,1,0,.19.55.55,0,0,1-.05.17c.05,0,.12,0,.14,0a1.79,1.79,0,0,1,.2.26,1.85,1.85,0,0,1-.23,0,1.21,1.21,0,0,1-.18,0s-.07,0-.1.06,0,.1.07.11.32.07.47.13.06.12.09.18a.66.66,0,0,1-.15,0,.41.41,0,0,0-.54.14c-.35.46-.73.89-1.09,1.34a.78.78,0,0,0-.06.35s.06,0,.09,0a.09.09,0,0,0,.07-.06c0-.35.3-.45.44-.68a7.82,7.82,0,0,1,.67-.85.55.55,0,0,1,.8.06.61.61,0,0,1,.05.12.38.38,0,0,1-.15,0s-.09-.06-.14-.07a.86.86,0,0,0-.16,0l.09.1c.09.09.12.13,0,.25-.31.29-.57.63-.85.94a.54.54,0,0,1-.16.1.85.85,0,0,0,0-.16.8.8,0,0,0,0-.15l-.2.08a3.82,3.82,0,0,1-.34.47.43.43,0,0,0-.06.2s0,0,0,.06a.71.71,0,0,1,.08-.15s.08,0,.12,0,0,.24,0,.25c-.27.09-.23.35-.3.54,0,0,0,.07,0,.1s.07,0,.08,0a.91.91,0,0,1,.48-.52,0,0,0,0,0,0,0c-.06-.46.45-.49.61-.81s.48-.45.67-.71.32-.11.49-.09l.16,0A.38.38,0,0,0,27,26.5a.87.87,0,0,1,0-1.06c.06-.1.14-.27.1-.35s0-.31.12-.44a4.7,4.7,0,0,1,.38-.5l.12-.11c0,.05,0,.1.08.14a1.76,1.76,0,0,1,.23.37,6.34,6.34,0,0,1,.23.74c0,.05-.1.15-.17.18-.24.11-.49.18-.71.3a1,1,0,0,0-.27.32s0,.09,0,.14a.45.45,0,0,0,.12-.06c.11-.1.2-.21.31-.3s.23-.08.3.09-.09.12-.16.16-.23.15-.33.23,0,.12,0,.18.11,0,.14-.05a.37.37,0,0,1,.52-.07.29.29,0,0,1,.11.11l-.14.11c-.13.09-.26.17-.38.27s0,.09,0,.13a.66.66,0,0,0,.15,0s.07-.09.11-.1.29-.1.34,0a1.05,1.05,0,0,1,.13.39c0,.16-.2.35,0,.51,0,0,0,.13-.1.15a1.46,1.46,0,0,1-.3,0,.94.94,0,0,0,.06-.15c0-.19.09-.38.13-.58,0,0-.1,0-.11,0-.1.16-.2.32-.29.48s0,.12-.08.17-.13-.08-.15-.14a4.62,4.62,0,0,1-.23-.62c-.09-.3-.4-.17-.57-.31s-.2.08-.27.16c-.44.49-.89,1-1.3,1.48a7.15,7.15,0,0,0-.54.88s0,0,0,.07,0,.19,0,.29c.06-.07.13-.14.19-.22a1.28,1.28,0,0,1,.11-.2.15.15,0,0,1,.17,0c.07.06.17.18.15.23a.8.8,0,0,1-.24.28c-.06.05-.17,0-.23.08-.24.17-.41.1-.55-.16a2.88,2.88,0,0,1-.28-1.44c0-.08,0-.19-.06-.23a3,3,0,0,1-.67-1.15c-.23-.5-.47-1-.66-1.54a7,7,0,0,1-.12-.82,8.74,8.74,0,0,0-.48-1.68,1.47,1.47,0,0,1-.19-.87,3.25,3.25,0,0,1,.34-.67.3.3,0,0,0,0-.24c-.07-.22-.2-.43-.25-.65A.87.87,0,0,1,22,20c.05-.12.12-.24.18-.36l-.27.27c-.18.2-.37.4-.55.61,0,0,0,.08,0,.12a.53.53,0,0,1,.12,0c.09,0,.26,0,.26,0,0,.2.06.4.09.6-.05,0-.11,0-.14,0a3.25,3.25,0,0,1-.45-.46,1.07,1.07,0,0,1-.12-.45c0-.15,0-.31,0-.47a.9.9,0,0,0-.13-.4.76.76,0,0,1-.06-.67.33.33,0,0,0-.06-.35,1.52,1.52,0,0,1-.21-.54c-.05-.24-.08-.48-.12-.72s0-.22-.07-.34a.91.91,0,0,1,0-.36c.12-.39.27-.77.4-1.16,0-.05.07-.11,0-.15-.17-.38.12-.29.31-.3.38,0,.5.13.37.5a.39.39,0,0,0,.07.4,2.6,2.6,0,0,1,.35.63c0,.07-.05.19-.1.27L21,17.82A.47.47,0,0,0,21,18s0,.08,0,.12l.07-.09.75-1.16c.22-.33.3-.37.66-.25a3.8,3.8,0,0,1,.47.18s0,.12,0,.16c-.22.3-.45.6-.67.91a.49.49,0,0,0,0,.11.53.53,0,0,0,.1-.06c.28-.33.56-.67.83-1,0,0,0-.15-.07-.19-.2-.16-.42-.3-.62-.46a.48.48,0,0,1-.16-.27c0-.36-.24-.69-.09-1,0-.08.13-.12.19-.18s.09.13.09.19A1.15,1.15,0,0,0,23.22,16a1,1,0,0,1,.48,1.29,4,4,0,0,1-.33.73,4.15,4.15,0,0,1-.43.51.37.37,0,0,0-.07.14.46.46,0,0,0,.16-.07,2,2,0,0,0,.26-.32c.11-.15.19-.08.25,0a.66.66,0,0,0,.95.35c.06,0,.15,0,.22.06a.22.22,0,0,0,.11,0c.12-.12.24-.25.35-.38s0-.08,0-.13l-.12,0a3.12,3.12,0,0,1-.35.2c-.15,0-.17-.08-.09-.16a6.28,6.28,0,0,1,.54-.49.13.13,0,0,1,.1,0A.76.76,0,0,1,25,19a5.48,5.48,0,0,0-.59.59.44.44,0,0,0-.07.26,1.23,1.23,0,0,0,.05.25,1.16,1.16,0,0,1,.06-.22,1.7,1.7,0,0,1,.24-.39c.2-.22.42-.43.63-.64a.42.42,0,0,1,.12,0s0,.11,0,.13c-.14.18-.3.34-.44.52a3.62,3.62,0,0,0-.2.33,1.66,1.66,0,0,0,.3-.22c.26-.28.5-.57.76-.85.05-.06.15-.08.23-.12a2.17,2.17,0,0,1-.07.24,1.29,1.29,0,0,1-.17.33,7.66,7.66,0,0,1-.57.57c-.13.13-.28.24-.42.37a.23.23,0,0,0,0,.12s.11,0,.13,0,.3-.33.45-.49.12,0,.18-.06.05.16,0,.19-.27.23-.4.36,0,.11-.05.17a1,1,0,0,0,.16-.06s.07-.08.11-.1.14-.32.28-.12,0,.29-.09.44-.13.07-.17.12,0,.1,0,.16a.58.58,0,0,0,.14-.05,1.66,1.66,0,0,0,.3-.24A.35.35,0,0,0,26,20a.56.56,0,0,1,0-.23l.15.12.17.07s.05-.12,0-.15c-.22-.3,0-.53.11-.79a.66.66,0,0,0,0-.27c0-.22-.09-.43-.14-.64L26.19,18l-.09.15-.34.5h-.08a.48.48,0,0,1-.08-.18c0-.27,0-.55-.25-.73,0,0,0-.11,0-.16s.12,0,.13,0c.14.19.49.27.29.62,0,0,0,.07.05.07a.5.5,0,0,0,.14-.45l-.35-.46a.27.27,0,0,0-.16-.1c-.14,0-.27,0-.15-.21,0,0,0-.08-.06-.11s-.07,0-.1.05a.27.27,0,0,0-.06.41.31.31,0,0,1-.09.44c-.21.2-.39.43-.59.64a.29.29,0,0,1-.42-.09,1,1,0,0,1,0-.75,2.08,2.08,0,0,0,.07-.5,2.35,2.35,0,0,0,0-.53.89.89,0,0,0-.48-.69c-.25-.16-.51-.3-.59-.63s.26-.91.58-.86l.09,0a.56.56,0,0,1-.05.08.52.52,0,0,0,0,.84,4.57,4.57,0,0,0,.69.63.4.4,0,0,1,.08.66c0,.05-.05.11-.08.16l.16-.07s0,0,.06-.06c.37-.37.37-.43,0-.86a4.33,4.33,0,0,1-.39-.62.16.16,0,0,1,0-.13.13.13,0,0,1,.13,0c.11.15.19.3.3.45s.09.07.14.1a.54.54,0,0,0,0-.18c-.09-.16-.2-.32-.31-.48s-.26-.16-.16-.38-.12-.21-.16-.33S24,14,24,14a.38.38,0,0,1,.28,0,.39.39,0,0,1,.2.13c.28.31.55.62.82.94,0,0,0,.1,0,.16s-.12,0-.15,0c-.19-.18-.37-.37-.56-.54a.8.8,0,0,0-.22-.13c0,.11,0,.26.09.32.27.23.58.42.85.65a.24.24,0,0,1,.1.32,1.4,1.4,0,0,1-.49.66c-.22.18-.41.4-.61.6,0,0,0,.07,0,.1s.11,0,.13,0c.25-.25.48-.5.72-.76a.54.54,0,0,1,.09-.12l.21-.11c0,.09,0,.17,0,.26s0,.12,0,.18.15-.06.16-.09c0-.2,0-.4,0-.59,0,0,0-.07.05-.11s0,0,.06,0c.14.46.41.86.57,1.3a9.9,9.9,0,0,1,.24,1.23.41.41,0,0,0,.41.32.18.18,0,0,1,.09,0c-.16-.44-.32-.89-.44-1.34a1.74,1.74,0,0,1-.05-.22s0-.07,0-.11a4.44,4.44,0,0,1-.21-.71.55.55,0,0,1-.09-.23,2.94,2.94,0,0,1-.19-.66l-.06,0H26a3.48,3.48,0,0,1,0-.72v0a.81.81,0,0,1-.17-.28,1.18,1.18,0,0,1,0-.46c.05-.65-.34-.77-.79-.85s-.64-.24-.59-.6a3.81,3.81,0,0,1,.25-.79.27.27,0,0,1,.21-.11l1.31-.07h1a.32.32,0,0,0,.21-.12,2.53,2.53,0,0,0,.43-1.38c0-.53,0-1.05.06-1.58a.75.75,0,0,0-.56-.86A.55.55,0,0,1,27,7.08.34.34,0,0,0,27,6.93c0,.05-.09.1-.1.15s0,.22,0,.28c.23.34,0,.69,0,1,0,0-.06.09-.11.13a.67.67,0,0,1-.07.18v0c0,.07,0,.14,0,.21a1,1,0,0,1,0,.25c-.05.19-.11.38-.17.57a.38.38,0,0,1-.1.12l-.07-.14,0-.05a1.17,1.17,0,0,1-.27.15.83.83,0,0,1-.62,0,.85.85,0,0,1-.64-.07c-.39-.24-.81-.43-1.21-.63a.61.61,0,0,0-.18,0A.57.57,0,0,1,23,8.75c-.14-.26-.32-.5-.46-.76a1.78,1.78,0,0,1-.16-.51,4.35,4.35,0,0,0-.41-1.62.89.89,0,0,0-.53-.41l-.9.28a2.86,2.86,0,0,0-.42.24c-.08.08-.16.15-.24.24l-.11.19c0,.15-.07.3-.11.44.19,0,.2.17.16.28a2.89,2.89,0,0,0,.1,1.1,1.31,1.31,0,0,1-.06.65c0,.09-.28.15-.42.12a.34.34,0,0,1-.2-.18h0L19,9,19,9a.29.29,0,0,1-.21.09l-.23.15v0s0,.08,0,.13.11,0,.14,0c.26-.19.41-.12.52.18a2.11,2.11,0,0,0,.37.49s.09,0,.14,0,0-.09-.05-.12c-.12-.2-.25-.4-.36-.6,0,0,0-.11,0-.16s.1,0,.12.07c.16.21.33.42.47.64a.63.63,0,0,1-.22.9,1.23,1.23,0,0,0-.29.27c-.18.22-.36.45-.55.67a.06.06,0,0,1-.07,0,.1.1,0,0,1,0-.07c0-.06,0-.13.06-.17.2-.21,0-.41,0-.61,0,0-.11-.07-.16-.1s-.06.17,0,.19c.24.22-.11.43,0,.64,0,0-.08.07-.11.06a.85.85,0,0,1-.32-.19c-.3-.37-.57-.76-.86-1.14,0,0-.09-.05-.14-.07a.42.42,0,0,0,0,.16c.2.33.3.72.7.9.06,0,.1.11.15.17h-.21a.6.6,0,0,1-.58-.44,1.18,1.18,0,0,0-.13-.18c0,.05,0,.13-.07.14a.16.16,0,0,1-.15,0c-.15-.23-.29-.48-.43-.72,0,0,0-.08,0-.1a1.56,1.56,0,0,1,.93-.11c.05,0,.1.1.14.16.19.29.36.58.56.86,0,.07.15.08.23.12a.56.56,0,0,0,0-.23c-.12-.18-.26-.35-.38-.53s-.27-.37-.23-.46a1.21,1.21,0,0,1,.5-.5c.13-.07.21-.11.21-.21a5.17,5.17,0,0,1-.74.38.52.52,0,0,1-.57.17h0a1.35,1.35,0,0,1-.49,0c-.1.12-.23.1-.33-.06l0,0a2.63,2.63,0,0,1-1.28-.42.56.56,0,0,0-.05.08l0-.14v0a1,1,0,0,1-.16-.2l-.06-.06a1.18,1.18,0,0,0-.83-.4c-.08,0-.18-.13-.21-.23a1.13,1.13,0,0,1,0-.37c0-.14,0-.26-.21-.15,0,0-.21-.11-.25-.19s-.1-.42-.17-.62-.17-.23-.3,0c0,0,0,.08-.06.08-.46.07-.37.48-.48.78a1.5,1.5,0,0,0-.07.75,3.39,3.39,0,0,1,.39.27l.09,0c0-.08-.05-.23-.11-.24-.34-.1-.12-.35-.15-.52s.1-.26.17-.38a.32.32,0,0,1,.1-.1l.07.12v.06a.65.65,0,0,0,.05.84l.1.12.08-.12a.85.85,0,0,0,0-.17c.07,0,.18.1.18.16q0,.42,0,.84l0,.07h0l.14.16.12.12h0a6.39,6.39,0,0,0,.59.47c.22.14.46.24.69.36a3.42,3.42,0,0,1,.42.23l0,0a7.28,7.28,0,0,1,.88.51l.31.2h0l.39.23h.08c.18.05.29-.05.44-.08s.42-.11.56,0c.46.25.89.56,1.32.85,0,.25-.06.31-.25.16l-.31-.25.09.11a4.93,4.93,0,0,1,.36.53l.07.05a.14.14,0,0,1,.09,0,2.72,2.72,0,0,1,.24.24c.28.34.54.64.78,1a.19.19,0,0,1,0,.08.9.9,0,0,1,.17.3h0c.13,0,.35,0,.16.24a1.71,1.71,0,0,0-.21.6.72.72,0,0,1-.26.47,1.43,1.43,0,0,1,.06.37,2.48,2.48,0,0,1-.05.66v0h0l0,.16.07.22A9.07,9.07,0,0,1,20.52,19c0,.2.07.41.11.61.24.73.45,1.48.64,2.22l0,0a.6.6,0,0,1,.06.19h0c.1.43.21.85.31,1.28.16.69.39,1.4.53,2.12l0,0h0c0,.11,0,.28.07.48.06.39.12.69.16.85.2,1,.31,1.53.31,1.55.15.55.33,1.1.49,1.65a.39.39,0,0,1-.29.43l-.33.05-.55.08c-.3,0-.39-.06-.44,0s.06.45.29.7c.61.68,1.52.45,2.36.69a.62.62,0,0,0,.48,0,.38.38,0,0,0,.11-.11.65.65,0,0,0,.08-.71,1.64,1.64,0,0,1-.07-.77c0-.06.15-.14.25-.19s.38-.1.48-.22c.44-.56,1.11-.58,1.71-.77.07,0,.19-.11.18-.17,0-.28,0-.51.33-.65.16-.07.23-.17.27.08,0,0,.1.09.16.11l.42.12.77.23c.35.1.76,0,1,.35a.32.32,0,0,0,.45.05,1.48,1.48,0,0,0,.36-.3A.28.28,0,0,0,31.26,28.72ZM24.9,21.61l0,.2a.09.09,0,0,1-.11-.06S24.88,21.66,24.9,21.61Zm.33,2.63-.81.69a1.23,1.23,0,0,1-.25.14c-.05-.11-.16-.23-.14-.33a1.53,1.53,0,0,1,.25-.47c.15-.24.32-.48.49-.71.05-.07.15-.09.23-.13s0,.22,0,.29c-.14.25-.32.48-.47.73,0,0,0,.1,0,.15l.1-.08.49-.66a1.54,1.54,0,0,1,.37.23A1.82,1.82,0,0,0,25.23,24.24ZM19.7,9.46l-.07-.13a.19.19,0,0,1,.11.09ZM12.75,7.88c0-.1-.11-.19-.11-.29s.09-.17.13-.26a.82.82,0,0,1,.09.19c.05.18.08.37.14.54s.14.06.22.08.25,0,.11.21C13,8.43,12.8,8.2,12.75,7.88Zm.57,1.49c0-.16-.06-.32-.08-.48s0-.09,0-.14h.06l.43.9C13.42,9.72,13.34,9.65,13.32,9.37Zm.41-.27c.09-.2.42-.16.56,0a2.16,2.16,0,0,1,.24.48c0,.06,0,.15,0,.23a.62.62,0,0,1-.17-.11Zm.43,1h-.1l.08-.15A.21.21,0,0,1,14.16,10.05Zm2.05,1.25s-.07-.07-.07-.1.05-.21.08-.31a.39.39,0,0,0-.07-.18s-.06,0-.1-.06,0,.07,0,.11,0,.16,0,.24-.18-.09-.22-.16c-.15-.23-.28-.48-.42-.72a.88.88,0,0,0-.15-.12.62.62,0,0,0,0,.19,1.21,1.21,0,0,0,0,.18,2.8,2.8,0,0,1,0,.29,2.29,2.29,0,0,1-.23-.21c-.07-.09-.09-.31-.22,0,0,0-.09,0-.1,0-.05-.24-.14-.2-.28-.06s-.14,0-.21,0a.66.66,0,0,1,.09-.19l.4-.34s.06,0,.08,0a3.79,3.79,0,0,1,1,.17c.21.1.34.36.49.56a3,3,0,0,1,.21.35A.38.38,0,0,1,16.21,11.3Zm.61.36c-.05,0-.1-.08-.14-.13s-.27-.17-.12-.35c.12,0,.26,0,.3,0a.71.71,0,0,1,.13.35S16.88,11.66,16.82,11.66Zm5.23,3.85c0,.08,0,.12,0,.14l-.14.16c0-.06-.07-.15-.05-.19a1.2,1.2,0,0,1,.21-.17Zm.76-1.19c-.1,0-.18,0-.08.15s-.08.12-.12.19-.09-.11-.09-.16A2.32,2.32,0,0,0,22,13a1.71,1.71,0,0,1-.24-.51s0-.1.05-.16.14,0,.17.09c.16.22.31.46.47.69s.33.4.46.59,0,.21,0,.31-.35.14,0,.18c0,0,.05.07.08.11S22.85,14.32,22.81,14.32Zm-2-1.93s-.1,0-.11-.06a2.52,2.52,0,0,1-.12-.29c.09,0,.21,0,.22,0A1.13,1.13,0,0,1,20.84,12.39Zm-.25-2.08a.88.88,0,0,0-.28.64c0,.07-.07.13-.1.2a.88.88,0,0,1-.12-.17,1.15,1.15,0,0,1,.56-1.08s0,0,0,0A.61.61,0,0,1,20.59,10.31Zm.16-1.42a.88.88,0,0,1-.23,0,2.08,2.08,0,0,1-.24-.06c-.06,0-.09-.09-.13-.14a.58.58,0,0,1,.18,0,1.85,1.85,0,0,1,.41,0,1.16,1.16,0,0,1,.27.14A1.29,1.29,0,0,1,20.75,8.89Zm-.63-.8a1.17,1.17,0,0,1,0-.29c.06.06.13.12.18.18a.44.44,0,0,1,.11.18.29.29,0,0,1-.05.18s-.11,0-.11,0a.68.68,0,0,1,0-.15A.86.86,0,0,0,20.12,8.09ZM21,9.21a.26.26,0,0,1-.07.15l0-.06Zm0,2.37c.08-.16.16-.06.24,0a.78.78,0,0,0,.15.1l.05.06-.08,0h-.18l.09.14.15.2a1.15,1.15,0,0,1,.19.33,1.37,1.37,0,0,1,0,.35,1.18,1.18,0,0,1-.28-.2,1.49,1.49,0,0,1-.17-.36,2.11,2.11,0,0,1-.17-.38A.41.41,0,0,1,21,11.58Zm.59.43a.34.34,0,0,1-.08-.14l.17.13Zm-.14-.49a5.63,5.63,0,0,1-.29-.49A.73.73,0,0,1,21.3,11c.17.26.53.38.54.75a1.16,1.16,0,0,1,0,.18.75.75,0,0,1-.15-.09A3.11,3.11,0,0,1,21.42,11.52Zm.72.32-.06-.17a.28.28,0,0,1,.15.13Zm0,.37H22l.11-.19A.21.21,0,0,1,22.11,12.21Zm.06-.8a.36.36,0,0,1-.08-.21l.11,0ZM22.09,11a.43.43,0,0,0-.1-.09.35.35,0,0,0-.15-.07h-.15c0-.05,0-.12.06-.14l.33-.1a.63.63,0,0,1,.08.26C22.16,10.88,22.11,10.92,22.09,11Zm.59-.07a2.81,2.81,0,0,1,0,.58c0,.06-.05.12-.08.19s-.13-.14-.14-.21a5.42,5.42,0,0,1,0-.57C22.59,10.69,22.67,10.73,22.68,10.9Zm-.22-.49s.08-.07.11-.06.06.07.09.1A.62.62,0,0,1,22.46,10.41Zm1.15,3.27c0,.06-.11.1-.17.16a2,2,0,0,0-.81-1.17s-.06-.09-.08-.14.14-.06.17,0a2.57,2.57,0,0,1,.52.4A1.1,1.1,0,0,1,23.61,13.68Zm-.86-1.58a.89.89,0,0,1,.14-.26,1.65,1.65,0,0,1,.14.26.8.8,0,0,1,0,.27s-.09,0-.12,0A2.15,2.15,0,0,1,22.75,12.1ZM24,13.23c-.05,0-.12,0-.14-.06s-.14-.25-.21-.38a1,1,0,0,1-.42-.83c0-.14-.15-.31-.27-.43s-.12-.32-.1-.49a.65.65,0,0,0,0-.13,1.39,1.39,0,0,0-.06-.19,1.55,1.55,0,0,1,.23.06c.16.06.31.14.47.19s.24,0,.36,0a.55.55,0,0,1,.15.08.18.18,0,0,1-.05.08.45.45,0,0,0-.29.6,1.08,1.08,0,0,1,0,.18.66.66,0,0,1-.14-.15c-.08-.16-.13-.35-.21-.51a.68.68,0,0,0-.23-.18s-.11,0-.11,0a.78.78,0,0,0,.07.23,1.87,1.87,0,0,1,.36.75c0,.13.2.24.28.37a5.86,5.86,0,0,1,.32.61S24,13.18,24,13.23ZM23.92,12l0,.21a.24.24,0,0,1-.12.11,2.13,2.13,0,0,1,0-.25S23.88,12,23.92,12Zm.1-.07c-.06,0-.15-.17-.16-.27s.09-.15.14-.23l.07.14c0,.09,0,.12,0,.14S24.21,11.94,24,11.94Zm.49,1.35c.18,0,.31.1.44.11.45,0,.61.16.68.59a3.32,3.32,0,0,1,.06.44.16.16,0,0,1-.07.11.18.18,0,0,1-.12,0c-.38-.25-.77-.5-1.15-.77-.12-.08-.29-.15-.17-.39S24.29,13.07,24.51,13.29Zm2.35-4c.07-.33.28-.62.23-1a.8.8,0,0,1,.06-.4.25.25,0,0,1,.21-.08.48.48,0,0,1,.23.26,4.65,4.65,0,0,1,.07.75.17.17,0,0,1-.07.13s-.1,0-.14-.06a1.33,1.33,0,0,1-.19-.14.43.43,0,0,1,0,0c.06.07.11.17.19.21s.36.19.13.41c0,.12.09.24.08.36,0,.32-.07.64-.11,1,0,0,0,.07-.06.07a.22.22,0,0,1-.11,0l-.28-.25c-.11-.11-.33-.2-.34-.31A3.62,3.62,0,0,1,26.86,9.33Zm-2.45.48.18,0a.37.37,0,0,1,.24.41.83.83,0,0,0,0,.15s0-.09.07-.12.17-.21.27-.22a8.85,8.85,0,0,1,1,0c.16,0,.29,0,.33.26s.2.26.32.37.25.2.34.32-.05.24-.11.25a4.28,4.28,0,0,1-.72.07c-.17,0-.28-.06-.1-.23s.09-.08.07-.1q-.27-.32-.57-.63s-.08,0-.12,0,0,.11,0,.14a4.6,4.6,0,0,1,.32.45c0,.06,0,.15,0,.23a.72.72,0,0,1-.21-.12c-.16-.19-.3-.39-.46-.58a.74.74,0,0,0-.12-.13c0,.08,0,.18,0,.23s.25.32.36.49a.59.59,0,0,1,0,.2l-.16-.1a2.37,2.37,0,0,1-.4-.28,10,10,0,0,1-.67-.79C24.37,10,24.41,9.89,24.41,9.81Zm-1.55-.35c0-.25.06-.3.29-.28a1.06,1.06,0,0,1,1,.85.31.31,0,0,1,0,.1s-.08,0-.1,0l-.43-.42s0-.07,0-.08l-.34-.15a.86.86,0,0,0,.16.3c.22.21.45.39.68.57,0,0,.11,0,.16,0s.14,0,.17,0a2.26,2.26,0,0,1,.23.31.85.85,0,0,0-.17.06s0,.06,0,.08a.69.69,0,0,0,.5.38.39.39,0,0,1,.14.08l-.13.09c-.43.22-.57.16-.68-.29,0-.14-.12-.28-.31-.23a.92.92,0,0,1-.39-.16c-.2-.17-.35-.41-.66-.36a.11.11,0,0,1-.08,0c-.2-.32-.42-.26-.67,0-.05,0-.16,0-.25,0l0-.32h.24s.07,0,.07,0a.36.36,0,0,1,.53-.21A.71.71,0,0,0,22.86,9.46Zm-.36-1s.06,0,.07.06a4,4,0,0,1,.11.47c0,.07,0,.19-.08.21s-.16,0-.23-.05,0-.12,0-.19a.21.21,0,0,0,0-.12.87.87,0,0,0-.28.05S22,9,21.94,9l-.06-.23C22,8.51,22.29,8.57,22.5,8.49Zm-.27-.64c-.06.05-.13.16-.16.15-.3-.11-.23.18-.3.29a.83.83,0,0,0-.06.29c-.08.33-.13.64-.18.95,0,0,0,.08,0,.1.35.29-.12.27-.16.41s-.05,0-.07,0a.42.42,0,0,1,0-.12c0-.05.12-.13.12-.14-.26-.31,0-.78-.38-1.07a1.74,1.74,0,0,1-.49-.63,1,1,0,0,0-.51-.54s0-.06,0-.08.07,0,.07,0c.12.19.51,0,.52.39,0,0,.13,0,.19,0l1.25,0A.48.48,0,0,1,22.23,7.85ZM20,6.48c.13-.14.24-.37.51-.25a.33.33,0,0,0,.09-.17c0-.13,0-.18.17-.18a.51.51,0,0,0,.31-.09.45.45,0,0,1,.68.17A1.65,1.65,0,0,1,22,7c0,.52,0,.48-.48.56s-.88-.19-1.32-.26C19.94,7.28,19.79,6.68,20,6.48Zm-.07,2.75V9.16l.23-.06A.43.43,0,0,1,19.93,9.23Zm-.64,3.87c0-.09-.08-.19-.05-.26a.64.64,0,0,0-.33-.72.16.16,0,0,1,0-.12c.07-.18.08-.37.37-.41s.24-.3.37-.45a1.28,1.28,0,0,1,.22-.17,1.09,1.09,0,0,1,0,.26.58.58,0,0,0,.1.7.27.27,0,0,1,0,.26c-.16.26-.34.5-.51.75Zm1.14,1.2h-.05a1,1,0,0,1-.15-.14,2,2,0,0,1-.16-.24l.22.13a.44.44,0,0,1,.18.18Zm.06-.38c-.06,0-.15-.05-.18-.1s-.15-.3-.23-.45a.76.76,0,0,0-.11-.14,1,1,0,0,0-.11.17.42.42,0,0,0,0,.12c-.05,0-.11-.06-.13-.1s0-.09,0-.13l.4-.71s0-.05,0-.08-.07,0-.08,0c-.11.17-.21.35-.32.53a.76.76,0,0,1-.17.13c0-.07,0-.15,0-.21.12-.21.24-.42.37-.62s.2-.16.35,0,.5.39.75.59a1.67,1.67,0,0,1,.24.08s0,.1,0,.15-.09.07-.11.12,0,.09,0,.14l.1,0,.18-.14c.07.15.2.3.19.44a1.1,1.1,0,0,1-.25.46s-.1.07-.15.1a1.43,1.43,0,0,1,0-.22.86.86,0,0,1,0-.16s-.13.07-.14.12a.58.58,0,0,0,0,.32c.06.15.19.11.32.08a1.21,1.21,0,0,1,.38-.06c.05,0,.1.06.15.1s-.06.11-.1.12c-.25,0-.5.08-.76.12h0c-.06-.15-.1-.3-.16-.45a.33.33,0,0,1,.12-.42.16.16,0,0,0,.05-.1c-.22-.09-.12-.29-.14-.45s0-.08,0-.13-.1,0-.11.07c-.07.19-.13.39-.2.58Zm.15.7a.41.41,0,0,1,.05-.23l.08.07ZM24,31.12s-.1,0-.12-.08a8.4,8.4,0,0,1-.38-.94c-.21-.67-.38-1.34-.56-2s-.29-1.21-.43-1.82v0c0-.1,0-.2,0-.3a1.38,1.38,0,0,1,.17.25c.31.78.6,1.54.6,1.54.22.91.25,1.45.42,2.26.06.25.12.52.12.52C23.86,30.75,23.91,31,24,31.12Zm.23-.81c-.05,0-.11,0-.16-.07S24,30.08,24,30a1.66,1.66,0,0,1,.13-.27c.05.06.11.12.16.19S24.43,30.25,24.18,30.31Zm2.76-3.21.08.08-.11.06A.2.2,0,0,1,26.94,27.1ZM26.77,27c0,.05,0,.13-.06.15s-.19.12-.21-.07Zm-.7.58.26-.29a1.16,1.16,0,0,1,0,.18s-.06.06-.1.1l-.06.06-.22.19Zm-.87,2.31c0-.06,0-.12.09-.17s.07,0,.1.07Zm.45-.4s-.13,0-.12,0,0-.26.08-.31c.42-.29.86-.57,1.29-.83a.5.5,0,0,1,.3,0s.09.06.1.11,0,.08-.07.1l-.81.47C26.12,29.18,25.89,29.36,25.65,29.53Zm1.21-.47,0-.11.49-.21A2.44,2.44,0,0,1,26.86,29.06Zm.33-1c-.12,0-.24-.07-.36-.09a.2.2,0,0,0-.14,0l-1.32,1.09c-.05,0-.13,0-.2,0s0-.16,0-.2c.29-.3.59-.6.89-.89,0,0,.09-.06.1-.11.1-.27.32-.3.57-.27a.6.6,0,0,0-.08-.21.44.44,0,0,1,.16,0,1.53,1.53,0,0,1,.27.11s0,.1-.06.11a.89.89,0,0,1-.23,0l.37.17.18.1C27.31,27.93,27.24,28,27.19,28Zm.46.22-.08,0,.06-.17A.31.31,0,0,1,27.65,28.23Zm.93-3.13c0,.13,0,.21,0,.28s-.08,0-.08,0-.08-.18-.11-.27Zm-.16,2.38.06-.2.1.13Zm.47.76,0-.13s.05.06.06.11S28.93,28.24,28.89,28.24Zm.54-.06s-.07,0-.07,0a.38.38,0,0,1-.08-.17s.06-.11,0-.14-.06-.13.05-.2l.08-.08c-.05,0-.09-.08-.14-.09a1,1,0,0,1-.69-.34.93.93,0,0,0-.15-.13l.19-.15.05,0,.33-.05a2.52,2.52,0,0,0-.3-.27c-.16-.11-.35-.18-.51-.3A1,1,0,0,1,28,25.9a.3.3,0,0,1,.06-.22,1.43,1.43,0,0,1,.41,0s.1.07.1.12c0,.31.31.41.47.61s.32.44.49.67.16.47.23.69a.86.86,0,0,1,0,.16C29.57,28,29.41,28,29.43,28.18Z" transform="translate(0)"/><path d="M23.11,23l-.27.54s-.13,0-.13,0-.06-.22,0-.29.24-.28.12-.49c0,0,0-.12.06-.17l.92-1.21.06-.06.16-.06a.69.69,0,0,1-.05.17c-.2.25-.41.49-.61.73s-.22.29-.32.45,0,.1,0,.16.13,0,.16,0c.33-.36.66-.72,1-1.1a.36.36,0,0,0,0-.29c0-.14-.22-.26-.07-.44,0,0,0-.09-.08-.11a.13.13,0,0,0-.11,0l-1,1.44-.12.13c0-.08,0-.18,0-.23.34-.46.7-.9,1-1.36a.27.27,0,0,0,0-.26c-.23-.25-.5-.46-.74-.7a3.18,3.18,0,0,1-.26-.35,3.06,3.06,0,0,0-.21-.29c-.15-.15,0-.26.05-.37s.09,0,.13,0,0,.06,0,.1a.82.82,0,0,0,.48.76s.08,0,.1.06a1.74,1.74,0,0,0,.31.44,2,2,0,0,1,.73,1.54c0,.07.07.14.09.22s0,.09,0,.14-.1,0-.11,0c-.1-.19-.18-.14-.3,0a1.79,1.79,0,0,1-.26.2s-.11,0-.14.08C23.48,22.55,23.3,22.77,23.11,23Z" transform="translate(0)"/><path d="M25.77,21.39c-.07.08-.11.15-.16.21l-.15.12c0-.06-.07-.14-.05-.19a1.93,1.93,0,0,1,.19-.38c.2-.27.42-.54.64-.8,0,0,.14,0,.19,0a.29.29,0,0,1,.07.17c-.32.23,0,.34.08.49a2.94,2.94,0,0,1,.3.42,2.61,2.61,0,0,1,.24.54c0,.06,0,.15,0,.23a.54.54,0,0,1-.16-.1c-.11-.13-.31-.25-.09-.46a.2.2,0,0,0,0-.13l-.4-.41s-.1-.05-.14-.08,0,.14,0,.19a.54.54,0,0,0,.2.26c.28.14.15.34,0,.46a4.6,4.6,0,0,1-.56.52h-.08s0-.08,0-.1.22-.21.32-.33a1.32,1.32,0,0,0,.12-.2c-.05,0-.11-.07-.14-.06s-.11.12-.17.16a.56.56,0,0,1-.18.07c0-.07,0-.16.09-.19s.35-.26.28-.52c0-.08-.1-.14-.15-.21a1.29,1.29,0,0,0-.16.17A.76.76,0,0,0,25.77,21.39Z" transform="translate(0)"/><path d="M21.24,18.6a1.84,1.84,0,0,1,0-.34c0-.07.07-.12.1-.18a1.11,1.11,0,0,0,.07.16l0,.07.07-.09c.23-.37.46-.74.7-1.1a1,1,0,0,1,.2-.2s.09,0,.14,0a.59.59,0,0,1,0,.13,7,7,0,0,1-.88,1.29c-.21.19-.15.48-.38.61a.86.86,0,0,0-.14.13,1.23,1.23,0,0,1,0-.19C21.2,18.79,21.22,18.71,21.24,18.6Z" transform="translate(0)"/><path d="M20.91,17.55a1.24,1.24,0,0,1,0-1.17c.11-.18.19-.38.3-.56a.39.39,0,0,1,.08-.1l0,.13a1,1,0,0,1,.05.29.53.53,0,0,1-.1.28.65.65,0,0,0-.2.77C21.14,17.29,21,17.44,20.91,17.55Z" transform="translate(0)"/><path d="M21.63,19.86l-.21.25-.14.11a.85.85,0,0,1,0-.22c0-.14.12-.26.16-.4a6.29,6.29,0,0,1,.11-.65,1.19,1.19,0,0,1,.26-.34c0,.13-.09.26-.12.39s-.06.21,0,.27S21.71,19.66,21.63,19.86Z" transform="translate(0)"/><path d="M23.9,23.63a1.55,1.55,0,0,1,0,.17c0,.09,0,.19,0,.29a1.11,1.11,0,0,0,.07.16,1,1,0,0,0-.18-.09c-.21-.07-.16-.21-.16-.38a3.12,3.12,0,0,0-.17-.65,1.22,1.22,0,0,1,0-.27.13.13,0,0,1,.1,0c.07.08.21.21.18.25C23.67,23.31,23.81,23.44,23.9,23.63Z" transform="translate(0)"/><path d="M22.75,24.26a7.52,7.52,0,0,1,.29-.71s.11,0,.17,0a2.09,2.09,0,0,1,0,.43,1.88,1.88,0,0,1-.22.45.54.54,0,0,1-.2.1Z" transform="translate(0)"/><path d="M27.09,25.58c.12-.1.25-.18.36-.29a.29.29,0,0,0,.05-.23c0-.06-.12-.11-.12-.17a1,1,0,0,1,.08-.28.67.67,0,0,1,.13.23c0,.2.06.37.32.35a.15.15,0,0,1,.09,0s0,.06,0,.07C27.69,25.4,27.4,25.5,27.09,25.58Z" transform="translate(0)"/><path d="M22.67,21.53c.35-.11.47-.41.66-.66a2.35,2.35,0,0,1,.26-.29,2.63,2.63,0,0,1-.15.35c-.22.31-.45.62-.69.92a.59.59,0,0,1-.18.13,2.44,2.44,0,0,1,0-.27C22.57,21.65,22.63,21.6,22.67,21.53Z" transform="translate(0)"/><path d="M22.86,17.62a4.76,4.76,0,0,1,.43-.46s.09,0,.14,0a.42.42,0,0,1,0,.12l-.9,1a.3.3,0,0,1-.08,0s0-.07,0-.1C22.57,18,22.72,17.83,22.86,17.62Z" transform="translate(0)"/><path d="M22.28,22.94c-.05-.14-.11-.25-.15-.37a.46.46,0,0,1-.06-.25c0-.07.09-.12.13-.19a1,1,0,0,0,0,.19c.05.14.12.28.17.42a.86.86,0,0,1,.05.27s-.05.1-.09.15Z" transform="translate(0)"/><path d="M24.41,20.87a1.2,1.2,0,0,1-.05-.23.43.43,0,0,1,0-.05c.11.08.21.15.35.07a1.48,1.48,0,0,1,0,.21s-.05.06-.07.09a2.56,2.56,0,0,0-.11.24C24.49,21.1,24.46,21,24.41,20.87Z" transform="translate(0)"/><path d="M24.42,23a2,2,0,0,1-.17.3.83.83,0,0,1-.15.11c0-.07,0-.14,0-.19a1.52,1.52,0,0,1,.17-.3.87.87,0,0,1,.13-.15C24.39,22.83,24.41,22.9,24.42,23Z" transform="translate(0)"/><path d="M23.42,24.65l-.21.28a1.41,1.41,0,0,1,0-.29,2.15,2.15,0,0,1,.13-.32A1.77,1.77,0,0,1,23.42,24.65Z" transform="translate(0)"/><path d="M22.15,21.42l.15-.1a.3.3,0,0,1,0,.16,3.11,3.11,0,0,1-.22.4s-.06,0-.09.05-.05-.11,0-.14S22.08,21.55,22.15,21.42Z" transform="translate(0)"/><path d="M20.88,15.7l.3-.47a.35.35,0,0,1,.1-.08.32.32,0,0,1,0,.13c-.12.2-.24.4-.37.6,0,0-.05,0-.08,0A2.08,2.08,0,0,1,20.88,15.7Z" transform="translate(0)"/><path d="M24.73,17.52l-.33.1h-.12s0-.1.06-.12l.4-.22s.06,0,.09,0Z" transform="translate(0)"/><path d="M25,16.07c-.17,0-.18,0-.12-.1a2,2,0,0,1,.26-.32s.07,0,.1,0,0,.07,0,.1A2.64,2.64,0,0,1,25,16.07Z" transform="translate(0)"/><path d="M22.79,20s.11.06.1.07c-.11.17-.22.35-.34.52a.45.45,0,0,1-.12.06.61.61,0,0,1,0-.13C22.56,20.32,22.67,20.16,22.79,20Z" transform="translate(0)"/><path d="M23.74,19.66c.1-.14.18-.27.28-.39s.1-.05.15-.08a.43.43,0,0,1,0,.17c-.1.14-.21.27-.32.41A.34.34,0,0,1,23.74,19.66Z" transform="translate(0)"/><path d="M21.92,19.4s-.08-.09-.06-.1.24-.28.36-.41l.06,0-.28.39Z" transform="translate(0)"/><path d="M26.1,17.33c0,.13,0,.24,0,.34-.05-.1-.1-.19-.14-.29a.61.61,0,0,1,0-.19A1.1,1.1,0,0,1,26.1,17.33Z" transform="translate(0)"/><path d="M25.25,26a2.12,2.12,0,0,1,.21-.15l-.12.23,0,0-.2.15C25.16,26.13,25.19,26.05,25.25,26Z" transform="translate(0)"/><path d="M24.12,19.89c0,.06,0,.11,0,.15a.24.24,0,0,1-.1.12s-.1,0-.11-.07A.17.17,0,0,1,24,20,.24.24,0,0,1,24.12,19.89Z" transform="translate(0)"/><path d="M21.69,16.48a.34.34,0,0,1-.09.12l-.16.21s0-.09,0-.11A1.44,1.44,0,0,1,21.69,16.48Z" transform="translate(0)"/><path d="M25.3,27.25s0,0,0,0,.19-.23.29-.35c0,0,0,.06,0,.07l-.19.2S25.35,27.22,25.3,27.25Z" transform="translate(0)"/><path d="M23.66,19.17a.2.2,0,0,1,.08.08l-.23.14s0-.09,0-.13A1,1,0,0,1,23.66,19.17Z" transform="translate(0)"/><path d="M23.48,18.76l-.19.13s0-.1,0-.12.16-.11.23-.16A.53.53,0,0,1,23.48,18.76Z" transform="translate(0)"/><path d="M24.21,20.23h0c0,.08,0,.16,0,.23h-.06A1.14,1.14,0,0,1,24.21,20.23Z" transform="translate(0)"/><path d="M22.75,21.26a.55.55,0,0,1,.17-.14l-.08.25A.35.35,0,0,1,22.75,21.26Z" transform="translate(0)"/><path d="M24.48,19a.26.26,0,0,1,.08-.11l.14,0a.45.45,0,0,1-.06.14A.22.22,0,0,1,24.48,19Z" transform="translate(0)"/><path d="M22.51,21a1.85,1.85,0,0,1,.09-.23l.08.07A.62.62,0,0,1,22.51,21Z" transform="translate(0)"/><path d="M22,17a1.47,1.47,0,0,1,.13-.17l.05.05A.63.63,0,0,1,22,17Z" transform="translate(0)"/><path d="M22.07,18.3a.41.41,0,0,1,.05-.19h.05A1,1,0,0,1,22.07,18.3Z" transform="translate(0)"/><path d="M22.88,18.18a.41.41,0,0,1-.08.13l-.05,0A.32.32,0,0,1,22.88,18.18Z" transform="translate(0)"/><path d="M27.25,6.93a.63.63,0,0,1,0-.9.4.4,0,0,1,.32,0,.34.34,0,0,1,.18.23,5.77,5.77,0,0,1-.15.83c0,.07-.13.12-.2.18a1.15,1.15,0,0,1-.09-.28l.14,0q.11-.34.18-.69s-.1-.09-.15-.08-.12.06-.12.11C27.28,6.51,27.27,6.72,27.25,6.93Z" transform="translate(0)"/><path d="M18,10l.24.29c.08.09.15.19.3.07s.11-.22.06-.34,0,0,0-.05-.25-.16-.11-.33a2.61,2.61,0,0,1,.23.24c.17.24.32.49.51.71s0,.3-.1.42l-.06,0c.08-.17.07-.28-.17-.23l-.06-.06c-.18-.18-.17-.18-.32,0,0,0-.15,0-.17,0-.13-.18-.26-.37-.38-.56,0,0,0-.12,0-.18h0Z" transform="translate(0)"/><path d="M18.92,9.54l.58.82a.41.41,0,0,1,.05.19s-.07,0-.1.08l-.11-.17-.46-.67a1.79,1.79,0,0,1-.12-.24Z" transform="translate(0)"/><path d="M18.17,10a.59.59,0,0,1,0-.19l.07.05a1.6,1.6,0,0,1,0,.23Z" transform="translate(0)"/><path d="M23.8,10.27l.25.36-.06,0-.26-.31s-.05,0-.06-.07a1.6,1.6,0,0,1-.1-.23Z" transform="translate(0)"/><path d="M20.51,13s0,.09,0,.11a2.2,2.2,0,0,1-.17.25l-.05-.07A1.12,1.12,0,0,1,20.51,13Z" transform="translate(0)"/><path d="M21.3,13.63a.39.39,0,0,1,.16-.1l0,.17A.31.31,0,0,1,21.3,13.63Z" transform="translate(0)"/><path d="M20.3,12.92a.17.17,0,0,1-.06-.1l.13,0A.33.33,0,0,1,20.3,12.92Z" transform="translate(0)"/><path d="M26.4,10.79a2.26,2.26,0,0,1-.21-.28.25.25,0,0,1,0-.15.29.29,0,0,1,.13.05c.2.16.39.33.57.5s0,.12.07.18a.6.6,0,0,1-.2,0A2.68,2.68,0,0,1,26.4,10.79Z" transform="translate(0)"/><path d="M27.09,10a.62.62,0,0,1,.17.11,1.94,1.94,0,0,1,.15.24.83.83,0,0,1-.29-.06.62.62,0,0,1-.19-.23.37.37,0,0,1,0-.15Z" transform="translate(0)"/><path d="M27.21,9.8a.55.55,0,0,1-.11-.17.33.33,0,0,1,0-.1l.38.26s0,.07,0,.1l-.25-.07Z" transform="translate(0)"/><path d="M27.54,9.46c-.05,0-.11,0-.14,0a.83.83,0,0,1-.14-.22s0,0,0-.07l.16.16A.58.58,0,0,1,27.54,9.46Z" transform="translate(0)"/><path d="M29.17,27.31l-.12-.13h.17A.26.26,0,0,1,29.17,27.31Z" transform="translate(0)"/><path d="M19.57,11.9a3.11,3.11,0,0,1-.07.47s-.08,0-.13.05,0-.1,0-.13.19-.23.06-.39A.17.17,0,0,1,19.57,11.9Z" transform="translate(0)"/><rect class="cls-1" width="12" height="11"/></svg>